<svg xmlns="http://www.w3.org/2000/svg" xmlns:xlink="http://www.w3.org/1999/xlink" width="500" zoomAndPan="magnify" viewBox="0 0 375 374.999991" height="500" preserveAspectRatio="xMidYMid meet" version="1.0"><defs><filter x="0%" y="0%" width="100%" height="100%" id="b7b4c03490"><feColorMatrix values="0 0 0 0 1 0 0 0 0 1 0 0 0 0 1 0 0 0 1 0" color-interpolation-filters="sRGB"/></filter><clipPath id="87818a657e"><path d="M 125 82 L 320 82 L 320 297.75 L 125 297.75 Z M 125 82 " clip-rule="nonzero"/></clipPath><mask id="db0d03f04a"><g filter="url(#b7b4c03490)"><rect x="-37.5" width="450" fill="#000000" y="-37.499999" height="449.999989" fill-opacity="0.25"/></g></mask><clipPath id="cffb541c7b"><path d="M 0.71875 0.441406 L 25.199219 0.441406 L 25.199219 11.238281 L 0.71875 11.238281 Z M 0.71875 0.441406 " clip-rule="nonzero"/></clipPath><clipPath id="23dd1302eb"><rect x="0" width="26" y="0" height="12"/></clipPath></defs><g clip-path="url(#87818a657e)"><path fill="#000000" d="M 138.90625 297.75 C 144.621094 262.394531 153.226562 228.570312 164.71875 196.289062 C 176.214844 164.007812 190.699219 133.527344 208.175781 104.847656 C 208.386719 139.398438 205.644531 173.960938 206.566406 208.441406 C 207.136719 230.210938 212.390625 248.503906 236.277344 254.421875 C 245.25 224.351562 253.847656 191.511719 267.117188 163.164062 C 266.425781 175.976562 267.347656 188.84375 271.871094 200.949219 C 277.609375 216.300781 293.824219 237.585938 319.714844 234.417969 C 269.894531 203.171875 304.671875 143.230469 292.847656 129.386719 C 286.695312 123.34375 276.710938 116.585938 267.679688 119.011719 C 254.339844 122.566406 235.148438 186.625 231.109375 200.175781 L 232.34375 107.296875 C 232.730469 102.847656 231.484375 98.871094 228.78125 95.335938 C 223.144531 89.152344 205.800781 77.25 198.0625 85.070312 C 192.074219 91.136719 185.847656 100.207031 179.386719 112.285156 C 165.140625 138.921875 134.300781 218.253906 126.355469 264.109375 C 122.589844 285.867188 130.621094 292.851562 138.90625 297.75 " fill-opacity="1" fill-rule="evenodd"/></g><path fill="#000000" d="M 220.554688 167.398438 C 103.738281 116.996094 37.601562 224.21875 120.320312 248.003906 C 120.609375 244.28125 120.644531 237.59375 116.019531 234.414062 C 80.675781 205.363281 131.386719 159.390625 201.105469 171.410156 C 207.835938 172.570312 215.054688 175.394531 220.554688 167.398438 " fill-opacity="1" fill-rule="evenodd"/><g mask="url(#db0d03f04a)"><g transform="matrix(1, 0, 0, 1, 150, 169)"><g clip-path="url(#23dd1302eb)"><g clip-path="url(#cffb541c7b)"><path fill="#ff087e" d="M 3.820312 3.015625 C 2.824219 5.671875 1.828125 8.363281 0.839844 11.074219 C 7.371094 9.714844 14.375 8.890625 21.746094 8.710938 C 22.847656 5.957031 23.972656 3.222656 25.121094 0.496094 C 17.597656 0.703125 10.460938 1.582031 3.820312 3.015625 " fill-opacity="1" fill-rule="evenodd"/></g></g></g></g><path fill="#000000" d="M 324.800781 191.699219 C 330.851562 191.117188 336.230469 195.554688 336.8125 201.605469 C 337.394531 207.65625 332.960938 213.035156 326.90625 213.617188 C 320.851562 214.199219 315.476562 209.765625 314.894531 203.710938 C 314.3125 197.660156 318.746094 192.28125 324.800781 191.699219 " fill-opacity="1" fill-rule="evenodd"/></svg>