<svg xmlns="http://www.w3.org/2000/svg" xmlns:xlink="http://www.w3.org/1999/xlink" width="500" zoomAndPan="magnify" viewBox="0 0 375 374.999991" height="500" preserveAspectRatio="xMidYMid meet" version="1.0"><defs><clipPath id="ed700a158c"><path d="M 125 82 L 320 82 L 320 297.75 L 125 297.75 Z M 125 82 " clip-rule="nonzero"/></clipPath></defs><g clip-path="url(#ed700a158c)"><path fill="#ff087e" d="M 138.90625 297.75 C 144.621094 262.394531 153.226562 228.570312 164.71875 196.289062 C 176.214844 164.007812 190.699219 133.527344 208.175781 104.847656 C 208.386719 139.398438 205.644531 173.960938 206.566406 208.441406 C 207.136719 230.210938 212.390625 248.503906 236.277344 254.421875 C 245.25 224.351562 253.847656 191.511719 267.117188 163.164062 C 266.425781 175.976562 267.347656 188.84375 271.871094 200.949219 C 277.609375 216.300781 293.824219 237.585938 319.714844 234.417969 C 269.894531 203.171875 304.671875 143.230469 292.847656 129.386719 C 286.695312 123.34375 276.710938 116.585938 267.679688 119.011719 C 254.339844 122.566406 235.148438 186.625 231.109375 200.175781 L 232.34375 107.296875 C 232.730469 102.847656 231.484375 98.871094 228.78125 95.335938 C 223.144531 89.152344 205.800781 77.25 198.0625 85.070312 C 192.074219 91.136719 185.847656 100.207031 179.386719 112.285156 C 165.140625 138.921875 134.300781 218.253906 126.355469 264.109375 C 122.589844 285.867188 130.621094 292.851562 138.90625 297.75 " fill-opacity="1" fill-rule="evenodd"/></g><path fill="#ff087e" d="M 220.554688 167.398438 C 103.738281 116.996094 37.601562 224.21875 120.320312 248.003906 C 120.609375 244.28125 120.644531 237.59375 116.019531 234.414062 C 80.675781 205.363281 131.386719 159.390625 201.105469 171.410156 C 207.835938 172.570312 215.054688 175.394531 220.554688 167.398438 " fill-opacity="1" fill-rule="evenodd"/><path fill="#1a2237" d="M 153.820312 172.015625 C 152.824219 174.671875 151.828125 177.363281 150.839844 180.074219 C 157.371094 178.714844 164.375 177.890625 171.746094 177.710938 C 172.847656 174.957031 173.972656 172.222656 175.121094 169.496094 C 167.597656 169.703125 160.460938 170.582031 153.820312 172.015625 " fill-opacity="0.25" fill-rule="evenodd"/><path fill="#ff087e" d="M 324.800781 191.699219 C 330.851562 191.117188 336.230469 195.554688 336.8125 201.605469 C 337.394531 207.65625 332.960938 213.035156 326.90625 213.617188 C 320.851562 214.199219 315.476562 209.765625 314.894531 203.710938 C 314.3125 197.660156 318.746094 192.28125 324.800781 191.699219 " fill-opacity="1" fill-rule="evenodd"/></svg>