<svg xmlns="http://www.w3.org/2000/svg" xmlns:xlink="http://www.w3.org/1999/xlink" width="500" zoomAndPan="magnify" viewBox="0 0 375 374.999991" height="500" preserveAspectRatio="xMidYMid meet" version="1.0"><path fill="#fccada" d="M 147.300781 155.734375 C 132.699219 157.167969 118.089844 160.429688 105.132812 167.316406 C 92.179688 174.203125 81.167969 185.042969 75.34375 198.503906 C 67.078125 217.609375 75.28125 231.277344 88.832031 239.179688 C 106.589844 249.527344 129.320312 247.988281 148.320312 240.148438 C 167.320312 232.3125 183.390625 218.910156 199.140625 205.707031 C 208.292969 198.039062 217.441406 190.363281 226.59375 182.695312 C 228.25 181.304688 230.039062 179.667969 230.183594 177.511719 C 230.390625 174.414062 227.21875 172.285156 224.414062 170.945312 C 201.046875 159.746094 174.324219 153.089844 147.300781 155.734375 Z M 147.300781 155.734375 " fill-opacity="1" fill-rule="nonzero"/><path fill="#ff6390" d="M 117.628906 248.222656 C 106.535156 248.222656 96.554688 245.683594 87.964844 240.679688 C 71.339844 230.988281 66.160156 215.363281 73.753906 197.8125 C 79.472656 184.59375 90.332031 173.21875 104.324219 165.785156 C 116.09375 159.53125 130.101562 155.675781 147.132812 154.007812 C 172.089844 151.566406 199.074219 156.878906 225.171875 169.382812 C 229.863281 171.628906 232.136719 174.40625 231.921875 177.628906 C 231.71875 180.667969 229.210938 182.773438 227.714844 184.027344 L 200.261719 207.039062 C 184.597656 220.171875 168.40625 233.746094 148.988281 241.757812 C 138.90625 245.917969 128.230469 248.152344 118.125 248.222656 C 117.960938 248.21875 117.792969 248.222656 117.628906 248.222656 Z M 147.300781 155.734375 L 147.472656 157.460938 C 130.898438 159.085938 117.316406 162.808594 105.953125 168.847656 C 92.648438 175.917969 82.347656 186.691406 76.941406 199.1875 C 67.605469 220.757812 80.933594 232.558594 89.710938 237.671875 C 105.300781 246.753906 126.960938 247.082031 147.660156 238.539062 C 166.578125 230.734375 182.566406 217.332031 198.023438 204.371094 L 225.476562 181.359375 C 226.925781 180.136719 228.351562 178.828125 228.453125 177.390625 C 228.589844 175.3125 225.925781 173.585938 223.667969 172.507812 C 198.144531 160.28125 171.792969 155.078125 147.472656 157.460938 Z M 147.300781 155.734375 " fill-opacity="1" fill-rule="nonzero"/><path fill="#fccada" d="M 256.582031 191.59375 C 231.378906 212.097656 150.640625 222.917969 130.765625 198.785156 C 131.59375 192.523438 133.578125 183.148438 134.667969 177.652344 C 139.542969 152.949219 147.4375 136.527344 160.375 130.394531 C 166.726562 127.382812 173.300781 126.265625 179.777344 127.46875 C 194.132812 130.132812 199.28125 127.984375 210.414062 126.625 C 220.722656 125.363281 228.320312 129.480469 234.464844 137.140625 C 237.824219 141.328125 245.660156 158.1875 250.886719 172.726562 C 253.773438 180.753906 256 187.953125 256.582031 191.59375 Z M 256.582031 191.59375 " fill-opacity="1" fill-rule="nonzero"/><path fill="#ff6390" d="M 177.046875 214.320312 C 168.988281 214.320312 161.503906 213.6875 154.9375 212.429688 C 142.980469 210.140625 134.394531 205.917969 129.425781 199.886719 C 129.121094 199.515625 128.980469 199.03125 129.042969 198.554688 C 129.734375 193.324219 131.230469 185.917969 132.324219 180.503906 C 132.558594 179.34375 132.777344 178.269531 132.96875 177.308594 C 135.539062 164.28125 138.8125 154.121094 142.96875 146.246094 C 147.480469 137.699219 152.929688 132 159.636719 128.824219 C 166.542969 125.550781 173.429688 124.523438 180.105469 125.757812 C 191.074219 127.792969 196.347656 126.972656 203.640625 125.835938 C 205.679688 125.515625 207.785156 125.191406 210.210938 124.894531 C 220.429688 123.644531 228.808594 127.289062 235.832031 136.042969 C 239.363281 140.453125 247.324219 157.648438 252.53125 172.125 C 255.625 180.742188 257.726562 187.734375 258.304688 191.308594 C 258.402344 191.917969 258.167969 192.535156 257.683594 192.929688 C 251.4375 198.011719 241.730469 202.671875 229.605469 206.410156 C 217.933594 210.011719 204.871094 212.515625 191.835938 213.648438 C 186.75 214.101562 181.796875 214.320312 177.046875 214.320312 Z M 132.59375 198.25 C 141.445312 208.195312 163.363281 212.65625 191.527344 210.203125 C 217.367188 207.949219 242.519531 200.230469 254.683594 190.886719 C 253.949219 187.28125 251.96875 180.859375 249.253906 173.3125 C 243.761719 158.042969 236.070312 141.917969 233.113281 138.230469 C 226.820312 130.386719 219.675781 127.242188 210.628906 128.351562 C 208.257812 128.640625 206.179688 128.964844 204.171875 129.273438 C 196.820312 130.417969 191.019531 131.320312 179.46875 129.175781 C 173.527344 128.074219 167.355469 129.011719 161.125 131.964844 C 149.5 137.472656 141.402344 152.53125 136.375 177.988281 C 136.183594 178.953125 135.96875 180.035156 135.734375 181.199219 C 134.699219 186.292969 133.304688 193.1875 132.59375 198.25 Z M 132.59375 198.25 " fill-opacity="1" fill-rule="nonzero"/><path fill="#fccada" d="M 169.59375 133.761719 C 168.011719 137.300781 170 141.667969 173.222656 143.832031 C 176.441406 145.988281 180.535156 146.371094 184.410156 146.199219 C 194.390625 145.757812 204.195312 141.96875 211.875 135.582031 " fill-opacity="1" fill-rule="nonzero"/><path fill="#ff6390" d="M 182.890625 147.972656 C 178.445312 147.972656 174.957031 147.085938 172.253906 145.273438 C 168.578125 142.8125 165.988281 137.574219 168.007812 133.058594 C 168.394531 132.183594 169.425781 131.792969 170.300781 132.183594 C 171.179688 132.570312 171.570312 133.597656 171.179688 134.476562 C 169.925781 137.277344 171.765625 140.765625 174.1875 142.390625 C 176.601562 144.007812 179.824219 144.664062 184.332031 144.46875 C 193.960938 144.042969 203.351562 140.410156 210.761719 134.25 C 211.5 133.636719 212.597656 133.738281 213.207031 134.476562 C 213.820312 135.210938 213.71875 136.308594 212.980469 136.921875 C 204.988281 143.5625 194.867188 147.476562 184.484375 147.9375 C 183.941406 147.957031 183.410156 147.972656 182.890625 147.972656 Z M 182.890625 147.972656 " fill-opacity="1" fill-rule="nonzero"/><path fill="#ff6390" d="M 256.582031 191.59375 C 216.832031 223.394531 140.917969 220.53125 130.765625 198.785156 C 131.59375 192.523438 133.1875 185.160156 134.28125 179.660156 C 156.691406 191.785156 213.023438 197.078125 250.890625 172.722656 C 253.773438 180.753906 256 187.953125 256.582031 191.59375 Z M 256.582031 191.59375 " fill-opacity="1" fill-rule="nonzero"/><path fill="#fccada" d="M 111.582031 246.210938 C 151.152344 251.136719 183.527344 228.859375 218.144531 228.019531 C 244.527344 227.378906 271.726562 237.882812 285.460938 233.375 C 303.675781 227.394531 308.539062 206.167969 297.195312 192.011719 C 286.128906 178.195312 239.011719 161.097656 201.832031 200.695312 C 169.792969 234.816406 126.046875 249.902344 111.582031 246.210938 Z M 111.582031 246.210938 " fill-opacity="1" fill-rule="nonzero"/><path fill="#ff6390" d="M 123.1875 248.660156 C 121.273438 248.660156 119.34375 248.601562 117.394531 248.484375 C 115.015625 248.535156 112.917969 248.339844 111.152344 247.890625 C 110.265625 247.664062 109.707031 246.785156 109.875 245.886719 C 110.042969 244.984375 110.882812 244.371094 111.796875 244.488281 C 113.742188 244.730469 115.675781 244.90625 117.597656 245.019531 C 125.546875 244.789062 137.226562 241.554688 149.394531 236.050781 C 168.285156 227.507812 186.457031 214.527344 200.5625 199.507812 C 220.945312 177.796875 243.039062 173.9375 257.988281 174.523438 C 276.566406 175.25 292.453125 183.328125 298.546875 190.925781 C 304.519531 198.382812 306.507812 208.125 303.871094 217 C 301.320312 225.566406 294.804688 232.136719 286 235.03125 C 278.222656 237.582031 266.832031 235.65625 253.644531 233.425781 C 242.671875 231.574219 230.246094 229.46875 218.1875 229.757812 C 203.546875 230.109375 189.441406 234.324219 174.511719 238.78125 C 158.203125 243.648438 141.429688 248.660156 123.1875 248.660156 Z M 255.21875 177.941406 C 241.109375 177.941406 221.414062 182.375 203.097656 201.886719 C 188.6875 217.234375 170.125 230.492188 150.832031 239.214844 C 146.742188 241.0625 142.726562 242.660156 138.871094 243.980469 C 150.832031 242.226562 162.285156 238.808594 173.515625 235.453125 C 188.675781 230.925781 202.992188 226.652344 218.101562 226.289062 C 230.5 225.988281 243.105469 228.121094 254.226562 230.003906 C 266.957031 232.15625 277.960938 234.019531 284.917969 231.734375 C 292.625 229.207031 298.316406 223.472656 300.539062 216.015625 C 302.851562 208.230469 301.097656 199.667969 295.835938 193.105469 C 290.234375 186.117188 275.394531 178.683594 257.851562 178 C 257.003906 177.960938 256.121094 177.941406 255.21875 177.941406 Z M 255.21875 177.941406 " fill-opacity="1" fill-rule="nonzero"/><path fill="#ff6390" d="M 123.03125 242.546875 C 119.730469 242.546875 116.472656 242.363281 113.300781 241.988281 C 99.402344 240.351562 88.367188 235.246094 82.230469 227.625 C 78.480469 222.964844 76.667969 217.5625 76.835938 211.5625 C 77.015625 205.210938 79.445312 198.339844 84.058594 191.128906 C 89.601562 182.46875 98.652344 175.082031 110.953125 169.164062 C 118.722656 165.433594 127.617188 162.359375 137.398438 160.03125 C 138.332031 159.8125 139.265625 160.390625 139.492188 161.316406 C 139.71875 162.246094 139.136719 163.183594 138.207031 163.410156 C 123.988281 166.789062 98.4375 175.128906 86.988281 193 C 78.828125 205.75 78.117188 216.972656 84.9375 225.449219 C 90.503906 232.363281 100.722656 237.011719 113.710938 238.539062 C 127.003906 240.105469 141.796875 238.210938 155.367188 233.207031 C 156.269531 232.875 157.265625 233.332031 157.597656 234.234375 C 157.929688 235.132812 157.46875 236.132812 156.566406 236.460938 C 145.726562 240.464844 134.113281 242.546875 123.03125 242.546875 Z M 123.03125 242.546875 " fill-opacity="1" fill-rule="nonzero"/><path fill="#fccada" d="M 207.183594 205.808594 C 217.046875 193.4375 231.949219 185.214844 247.671875 183.460938 C 263.394531 181.703125 279.75 186.453125 292.09375 196.34375 " fill-opacity="1" fill-rule="nonzero"/><path fill="#ff6390" d="M 207.179688 207.542969 C 206.800781 207.542969 206.417969 207.421875 206.101562 207.164062 C 205.347656 206.566406 205.226562 205.472656 205.824219 204.722656 C 216.027344 191.925781 231.207031 183.546875 247.480469 181.734375 C 263.753906 179.921875 280.40625 184.753906 293.179688 194.988281 C 293.925781 195.589844 294.046875 196.683594 293.445312 197.429688 C 292.84375 198.175781 291.75 198.296875 291.003906 197.695312 C 278.945312 188.03125 263.222656 183.472656 247.863281 185.179688 C 232.503906 186.894531 218.171875 194.800781 208.542969 206.886719 C 208.199219 207.316406 207.691406 207.542969 207.179688 207.542969 Z M 207.179688 207.542969 " fill-opacity="1" fill-rule="nonzero"/><path fill="#fccada" d="M 181.359375 228.1875 C 187.253906 223.726562 195.289062 217.164062 201.5 212.019531 " fill-opacity="1" fill-rule="nonzero"/><path fill="#ff6390" d="M 181.359375 229.921875 C 180.835938 229.921875 180.3125 229.683594 179.976562 229.234375 C 179.398438 228.46875 179.546875 227.378906 180.3125 226.800781 C 185.0625 223.207031 191.824219 217.78125 200.394531 210.675781 C 201.128906 210.066406 202.226562 210.164062 202.839844 210.90625 C 203.449219 211.640625 203.351562 212.738281 202.609375 213.351562 C 193.996094 220.484375 187.199219 225.941406 182.40625 229.566406 C 182.097656 229.808594 181.726562 229.921875 181.359375 229.921875 Z M 181.359375 229.921875 " fill-opacity="1" fill-rule="nonzero"/><path fill="#ffffff" d="M 135.417969 195.582031 L 139.933594 199.644531 C 140.152344 199.839844 140.453125 199.929688 140.746094 199.871094 L 146.527344 198.832031 C 147.277344 198.695312 147.578125 197.785156 147.058594 197.226562 L 142.964844 192.851562 C 142.734375 192.601562 142.386719 192.492188 142.058594 192.570312 L 135.855469 193.921875 C 135.09375 194.097656 134.835938 195.058594 135.417969 195.582031 Z M 135.417969 195.582031 " fill-opacity="1" fill-rule="nonzero"/><path fill="#ffffff" d="M 155.535156 201.289062 L 160.484375 204.8125 C 160.726562 204.984375 161.03125 205.039062 161.316406 204.949219 L 166.945312 203.253906 C 167.671875 203.035156 167.871094 202.097656 167.292969 201.605469 L 162.726562 197.722656 C 162.46875 197.503906 162.109375 197.4375 161.792969 197.546875 L 155.785156 199.597656 C 155.042969 199.847656 154.898438 200.835938 155.535156 201.289062 Z M 155.535156 201.289062 " fill-opacity="1" fill-rule="nonzero"/><path fill="#ffffff" d="M 177.113281 204.300781 L 182.421875 207.257812 C 182.679688 207.402344 182.992188 207.414062 183.265625 207.296875 L 188.671875 204.996094 C 189.371094 204.695312 189.464844 203.738281 188.832031 203.316406 L 183.867188 199.960938 C 183.585938 199.773438 183.222656 199.746094 182.917969 199.886719 L 177.171875 202.585938 C 176.464844 202.925781 176.425781 203.921875 177.113281 204.300781 Z M 177.113281 204.300781 " fill-opacity="1" fill-rule="nonzero"/></svg>