<svg xmlns="http://www.w3.org/2000/svg" xmlns:xlink="http://www.w3.org/1999/xlink" width="500" zoomAndPan="magnify" viewBox="0 0 375 374.999991" height="500" preserveAspectRatio="xMidYMid meet" version="1.0"><defs><clipPath id="a413084700"><path d="M 101.011719 100 L 274 100 L 274 275 L 101.011719 275 Z M 101.011719 100 " clip-rule="nonzero"/></clipPath></defs><g clip-path="url(#a413084700)"><path fill="#000000" d="M 160.359375 245.101562 L 157.117188 249.132812 C 154.636719 252.222656 152.007812 254.804688 149.230469 256.640625 C 141.699219 261.609375 133.265625 261.320312 124.089844 251.324219 C 115.6875 242.171875 115.851562 234.054688 120.746094 226.933594 C 121.105469 226.410156 121.484375 225.902344 121.890625 225.390625 L 128.199219 217.546875 C 124.109375 218.097656 120.265625 218.148438 116.84375 217.507812 C 108.339844 215.914062 102.484375 210.273438 101.953125 197.867188 C 101.65625 190.675781 103.140625 185.574219 105.929688 182.097656 L 119.601562 165.070312 C 116.167969 158.898438 116.351562 152.011719 122.472656 144.390625 L 137.304688 125.9375 C 137.792969 125.3125 138.335938 124.691406 138.90625 124.058594 C 148.339844 113.785156 156.964844 113.746094 164.652344 119.152344 C 165.316406 119.621094 165.96875 120.132812 166.621094 120.683594 L 178.191406 106.289062 C 178.253906 106.207031 178.324219 106.125 178.386719 106.054688 C 178.40625 106.023438 178.425781 106.003906 178.445312 105.972656 C 178.609375 105.789062 178.773438 105.605469 178.949219 105.421875 C 178.957031 105.410156 178.96875 105.402344 178.96875 105.390625 C 182.421875 101.757812 187.941406 99.75 196.25 100.097656 C 208.59375 100.617188 214.246094 106.402344 215.890625 114.804688 C 216.71875 119.082031 216.453125 124.027344 215.472656 129.28125 L 217.875 126.292969 C 217.925781 126.230469 217.964844 126.171875 218.015625 126.109375 C 218.027344 126.101562 218.046875 126.078125 218.058594 126.070312 C 220.367188 123.222656 222.832031 120.824219 225.457031 119.089844 C 232.550781 114.417969 240.59375 114.386719 249.605469 122.683594 C 259.261719 131.558594 259.824219 139.730469 255.328125 147.054688 C 254.796875 147.929688 254.183594 148.796875 253.5 149.644531 L 246.90625 157.855469 C 251.660156 157.214844 256.09375 157.214844 259.917969 158.132812 C 268.285156 160.164062 273.664062 166.34375 273.101562 179.421875 C 272.84375 185.535156 271.292969 190.003906 268.757812 193.15625 C 264.28125 198.726562 259.804688 204.296875 255.328125 209.863281 C 258.691406 215.34375 259.222656 221.289062 255.246094 227.644531 C 255.238281 227.667969 255.214844 227.6875 255.207031 227.71875 C 255.0625 227.941406 254.910156 228.167969 254.757812 228.402344 C 254.726562 228.453125 254.683594 228.503906 254.644531 228.566406 C 254.511719 228.757812 254.367188 228.960938 254.226562 229.15625 C 254.171875 229.226562 254.121094 229.289062 254.082031 229.359375 C 253.929688 229.554688 253.773438 229.757812 253.613281 229.960938 C 253.570312 230.011719 253.519531 230.074219 253.480469 230.136719 C 253.457031 230.15625 253.449219 230.175781 253.4375 230.195312 L 238.609375 248.640625 C 237.535156 249.976562 236.269531 251.324219 234.789062 252.691406 C 226 260.769531 218.128906 260.945312 211.160156 256.609375 C 210.179688 256.007812 209.21875 255.304688 208.289062 254.515625 L 197.527344 267.910156 C 194.390625 271.820312 189.25 274.269531 181.421875 274.59375 C 167.953125 275.164062 161.777344 269.492188 159.9375 260.75 C 158.988281 256.199219 159.285156 250.824219 160.359375 245.101562 " fill-opacity="1" fill-rule="evenodd"/></g><path fill="#ffffff" d="M 180.746094 212.894531 C 170.792969 232.992188 157.066406 250.019531 140.226562 231.664062 C 124.835938 214.894531 140.625 202.183594 159.753906 192.980469 C 139.703125 199.960938 119.53125 202.082031 118.558594 179.351562 C 117.539062 155.09375 138.222656 156.777344 158.980469 163.570312 C 140.195312 154.410156 125.039062 141.808594 140.226562 125.261719 C 157.527344 106.402344 171.539062 124.894531 181.554688 145.695312 C 173.828125 123.875 170.515625 100.789062 196.179688 101.871094 C 218.804688 102.828125 216.839844 122.722656 209.964844 142.617188 C 219.203125 123.886719 231.863281 108.789062 248.398438 124 C 266.121094 140.300781 250.738281 153.59375 231.488281 163.386719 C 252.046875 156.746094 272.34375 155.316406 271.320312 179.351562 C 270.371094 201.773438 250.730469 200.011719 230.953125 193.265625 C 250.453125 203.082031 266.292969 216.464844 248.410156 232.921875 C 232.273438 247.765625 219.835938 233.757812 210.660156 215.679688 C 216.953125 234.867188 218.027344 253.445312 196.179688 254.363281 C 171.4375 255.414062 173.625 233.980469 180.746094 212.894531 " fill-opacity="1" fill-rule="evenodd"/><path fill="#000000" d="M 194.941406 140.964844 C 215.503906 140.964844 232.171875 157.601562 232.171875 178.117188 C 232.171875 198.644531 215.503906 215.28125 194.941406 215.28125 C 174.390625 215.28125 157.722656 198.644531 157.722656 178.117188 C 157.722656 157.601562 174.390625 140.964844 194.941406 140.964844 " fill-opacity="1" fill-rule="evenodd"/><path fill="#ffcc00" d="M 194.941406 142.75 C 214.511719 142.75 230.382812 158.582031 230.382812 178.117188 C 230.382812 197.652344 214.511719 213.496094 194.941406 213.496094 C 175.371094 213.496094 159.511719 197.652344 159.511719 178.117188 C 159.511719 158.582031 175.371094 142.75 194.941406 142.75 " fill-opacity="1" fill-rule="evenodd"/><path fill="#000000" d="M 184.414062 159.480469 C 187.257812 159.480469 189.554688 163.917969 189.554688 169.386719 C 189.554688 174.84375 187.257812 179.28125 184.414062 179.28125 C 181.574219 179.28125 179.273438 174.84375 179.273438 169.386719 C 179.273438 163.917969 181.574219 159.480469 184.414062 159.480469 " fill-opacity="1" fill-rule="evenodd"/><path fill="#000000" d="M 204.648438 159.480469 C 207.480469 159.480469 209.789062 163.917969 209.789062 169.386719 C 209.789062 174.84375 207.480469 179.28125 204.648438 179.28125 C 201.808594 179.28125 199.5 174.84375 199.5 169.386719 C 199.5 163.917969 201.808594 159.480469 204.648438 159.480469 " fill-opacity="1" fill-rule="evenodd"/><path fill="#000000" d="M 219.640625 184.1875 C 218.292969 189.6875 215.144531 194.492188 210.863281 197.929688 C 206.5 201.417969 200.960938 203.507812 194.941406 203.507812 C 188.921875 203.507812 183.394531 201.417969 179.03125 197.929688 C 174.738281 194.492188 171.589844 189.6875 170.242188 184.1875 C 169.820312 184.085938 169.433594 183.890625 169.097656 183.617188 C 168.574219 183.207031 168.207031 182.617188 168.054688 181.953125 C 167.953125 181.484375 168.246094 181.015625 168.71875 180.914062 C 169.1875 180.8125 169.65625 181.117188 169.761719 181.585938 C 169.820312 181.863281 169.976562 182.097656 170.191406 182.269531 C 170.394531 182.433594 170.660156 182.535156 170.957031 182.535156 C 171.242188 182.535156 171.507812 182.433594 171.722656 182.269531 C 171.9375 182.097656 172.089844 181.863281 172.152344 181.585938 C 172.253906 181.117188 172.714844 180.8125 173.183594 180.914062 C 173.652344 181.015625 173.949219 181.484375 173.847656 181.953125 C 173.707031 182.617188 173.328125 183.207031 172.804688 183.617188 C 172.570312 183.808594 172.304688 183.972656 172.007812 184.085938 C 173.304688 189.074219 176.199219 193.429688 180.121094 196.574219 C 184.179688 199.828125 189.332031 201.773438 194.941406 201.773438 C 200.5625 201.773438 205.710938 199.828125 209.769531 196.574219 C 213.683594 193.429688 216.574219 189.074219 217.875 184.085938 C 217.585938 183.972656 217.320312 183.808594 217.078125 183.617188 C 216.566406 183.207031 216.1875 182.617188 216.035156 181.953125 C 215.933594 181.484375 216.238281 181.015625 216.707031 180.914062 C 217.179688 180.8125 217.640625 181.117188 217.742188 181.585938 C 217.800781 181.863281 217.957031 182.097656 218.171875 182.269531 C 218.375 182.433594 218.640625 182.535156 218.9375 182.535156 C 219.222656 182.535156 219.5 182.433594 219.703125 182.269531 C 219.917969 182.097656 220.070312 181.863281 220.132812 181.585938 C 220.234375 181.117188 220.695312 180.8125 221.164062 180.914062 C 221.632812 181.015625 221.929688 181.484375 221.828125 181.953125 C 221.6875 182.617188 221.308594 183.207031 220.785156 183.617188 C 220.460938 183.890625 220.070312 184.085938 219.640625 184.1875 " fill-opacity="1" fill-rule="nonzero"/><path fill="#ffffff" d="M 185.652344 161.742188 C 186.347656 161.742188 186.910156 162.824219 186.910156 164.171875 C 186.910156 165.507812 186.347656 166.589844 185.652344 166.589844 C 184.957031 166.589844 184.394531 165.507812 184.394531 164.171875 C 184.394531 162.824219 184.957031 161.742188 185.652344 161.742188 " fill-opacity="1" fill-rule="evenodd"/><path fill="#ffffff" d="M 206.214844 161.742188 C 206.910156 161.742188 207.46875 162.824219 207.46875 164.171875 C 207.46875 165.507812 206.910156 166.589844 206.214844 166.589844 C 205.519531 166.589844 204.957031 165.507812 204.957031 164.171875 C 204.957031 162.824219 205.519531 161.742188 206.214844 161.742188 " fill-opacity="1" fill-rule="evenodd"/></svg>