<svg xmlns="http://www.w3.org/2000/svg" xmlns:xlink="http://www.w3.org/1999/xlink" width="500" zoomAndPan="magnify" viewBox="0 0 375 374.999991" height="500" preserveAspectRatio="xMidYMid meet" version="1.0"><defs><filter x="0%" y="0%" width="100%" height="100%" id="d79277e7be"><feColorMatrix values="0 0 0 0 1 0 0 0 0 1 0 0 0 0 1 0 0 0 1 0" color-interpolation-filters="sRGB"/></filter><clipPath id="0b83b65e00"><path d="M 272 200 L 365.726562 200 L 365.726562 293.394531 L 272 293.394531 Z M 272 200 " clip-rule="nonzero"/></clipPath><clipPath id="2940fbee21"><path d="M 29 200 L 123 200 L 123 293.394531 L 29 293.394531 Z M 29 200 " clip-rule="nonzero"/></clipPath><clipPath id="d24d743e1d"><path d="M 241 37.5 L 253 37.5 L 253 69 L 241 69 Z M 241 37.5 " clip-rule="nonzero"/></clipPath><clipPath id="8462abfb5f"><path d="M 242 37.5 L 253 37.5 L 253 58 L 242 58 Z M 242 37.5 " clip-rule="nonzero"/></clipPath><clipPath id="7c5312b8ee"><path d="M 9.097656 170 L 51 170 L 51 195 L 9.097656 195 Z M 9.097656 170 " clip-rule="nonzero"/></clipPath><clipPath id="6318aa2086"><path d="M 48 192 L 87 192 L 87 234.5625 L 48 234.5625 Z M 48 192 " clip-rule="nonzero"/></clipPath><mask id="fd79c887ab"><g filter="url(#d79277e7be)"><rect x="-37.5" width="450" fill="#000000" y="-37.499999" height="449.999989" fill-opacity="0.25"/></g></mask><clipPath id="6f12ba8e91"><path d="M 0.0390625 0.519531 L 5 0.519531 L 5 2.921875 L 0.0390625 2.921875 Z M 0.0390625 0.519531 " clip-rule="nonzero"/></clipPath><clipPath id="3daaab186e"><rect x="0" width="6" y="0" height="3"/></clipPath></defs><g clip-path="url(#0b83b65e00)"><path fill="#171b1b" d="M 365.742188 246.734375 C 365.742188 248.261719 365.667969 249.78125 365.515625 251.300781 C 365.367188 252.816406 365.144531 254.324219 364.847656 255.820312 C 364.550781 257.316406 364.179688 258.792969 363.734375 260.253906 C 363.292969 261.710938 362.78125 263.144531 362.195312 264.554688 C 361.613281 265.964844 360.960938 267.339844 360.242188 268.6875 C 359.523438 270.03125 358.742188 271.339844 357.894531 272.605469 C 357.046875 273.875 356.140625 275.097656 355.171875 276.277344 C 354.203125 277.457031 353.179688 278.585938 352.101562 279.664062 C 351.023438 280.742188 349.894531 281.765625 348.714844 282.730469 C 347.539062 283.699219 346.3125 284.605469 345.046875 285.453125 C 343.777344 286.300781 342.472656 287.085938 341.125 287.804688 C 339.78125 288.523438 338.40625 289.175781 336.996094 289.757812 C 335.585938 290.339844 334.152344 290.855469 332.691406 291.296875 C 331.234375 291.742188 329.757812 292.109375 328.261719 292.40625 C 326.765625 292.707031 325.257812 292.929688 323.742188 293.078125 C 322.222656 293.226562 320.703125 293.304688 319.175781 293.304688 C 317.652344 293.304688 316.128906 293.226562 314.613281 293.078125 C 313.09375 292.929688 311.585938 292.707031 310.089844 292.40625 C 308.597656 292.109375 307.117188 291.742188 305.660156 291.296875 C 304.199219 290.855469 302.765625 290.339844 301.355469 289.757812 C 299.949219 289.175781 298.570312 288.523438 297.226562 287.804688 C 295.878906 287.085938 294.574219 286.300781 293.304688 285.453125 C 292.039062 284.605469 290.8125 283.699219 289.636719 282.730469 C 288.457031 281.765625 287.328125 280.742188 286.25 279.664062 C 285.171875 278.585938 284.148438 277.457031 283.179688 276.277344 C 282.214844 275.097656 281.304688 273.875 280.457031 272.605469 C 279.613281 271.339844 278.828125 270.03125 278.109375 268.6875 C 277.390625 267.339844 276.738281 265.964844 276.15625 264.554688 C 275.570312 263.144531 275.058594 261.710938 274.617188 260.253906 C 274.171875 258.792969 273.804688 257.316406 273.503906 255.820312 C 273.207031 254.324219 272.984375 252.816406 272.835938 251.300781 C 272.6875 249.78125 272.609375 248.261719 272.609375 246.734375 C 272.609375 245.210938 272.6875 243.6875 272.835938 242.171875 C 272.984375 240.652344 273.207031 239.144531 273.503906 237.648438 C 273.804688 236.152344 274.171875 234.675781 274.617188 233.214844 C 275.058594 231.757812 275.570312 230.324219 276.15625 228.914062 C 276.738281 227.503906 277.390625 226.128906 278.109375 224.78125 C 278.828125 223.4375 279.613281 222.132812 280.457031 220.863281 C 281.304688 219.59375 282.214844 218.371094 283.179688 217.191406 C 284.148438 216.011719 285.171875 214.882812 286.25 213.804688 C 287.328125 212.726562 288.457031 211.703125 289.636719 210.738281 C 290.8125 209.769531 292.039062 208.863281 293.304688 208.015625 C 294.574219 207.167969 295.878906 206.382812 297.226562 205.664062 C 298.570312 204.945312 299.949219 204.296875 301.355469 203.710938 C 302.765625 203.128906 304.199219 202.613281 305.660156 202.171875 C 307.117188 201.730469 308.597656 201.359375 310.089844 201.0625 C 311.585938 200.765625 313.09375 200.539062 314.613281 200.390625 C 316.128906 200.242188 317.652344 200.167969 319.175781 200.167969 C 320.703125 200.167969 322.222656 200.242188 323.742188 200.390625 C 325.257812 200.539062 326.765625 200.765625 328.261719 201.0625 C 329.757812 201.359375 331.234375 201.730469 332.691406 202.171875 C 334.152344 202.613281 335.585938 203.128906 336.996094 203.710938 C 338.40625 204.296875 339.78125 204.945312 341.125 205.664062 C 342.472656 206.382812 343.777344 207.167969 345.046875 208.015625 C 346.3125 208.863281 347.539062 209.769531 348.714844 210.738281 C 349.894531 211.703125 351.023438 212.726562 352.101562 213.804688 C 353.179688 214.882812 354.203125 216.011719 355.171875 217.191406 C 356.140625 218.371094 357.046875 219.59375 357.894531 220.863281 C 358.742188 222.132812 359.523438 223.4375 360.242188 224.78125 C 360.960938 226.128906 361.613281 227.503906 362.195312 228.914062 C 362.78125 230.324219 363.292969 231.757812 363.734375 233.214844 C 364.179688 234.675781 364.550781 236.152344 364.847656 237.648438 C 365.144531 239.144531 365.367188 240.652344 365.515625 242.171875 C 365.667969 243.6875 365.742188 245.210938 365.742188 246.734375 Z M 365.742188 246.734375 " fill-opacity="1" fill-rule="nonzero"/></g><path fill="#171b1b" d="M 362.246094 246.734375 C 362.246094 248.144531 362.179688 249.550781 362.039062 250.957031 C 361.902344 252.359375 361.695312 253.753906 361.417969 255.136719 C 361.144531 256.519531 360.800781 257.886719 360.390625 259.238281 C 359.984375 260.589844 359.507812 261.914062 358.96875 263.21875 C 358.429688 264.523438 357.824219 265.796875 357.160156 267.039062 C 356.496094 268.285156 355.773438 269.492188 354.988281 270.664062 C 354.203125 271.839844 353.363281 272.96875 352.46875 274.058594 C 351.574219 275.152344 350.628906 276.195312 349.632812 277.191406 C 348.632812 278.191406 347.589844 279.136719 346.5 280.03125 C 345.410156 280.925781 344.277344 281.765625 343.105469 282.550781 C 341.933594 283.332031 340.722656 284.058594 339.480469 284.722656 C 338.234375 285.386719 336.960938 285.988281 335.660156 286.53125 C 334.355469 287.070312 333.027344 287.542969 331.679688 287.953125 C 330.328125 288.363281 328.960938 288.707031 327.578125 288.980469 C 326.195312 289.257812 324.800781 289.460938 323.398438 289.601562 C 321.992188 289.738281 320.585938 289.808594 319.175781 289.808594 C 317.765625 289.808594 316.359375 289.738281 314.953125 289.601562 C 313.550781 289.460938 312.15625 289.257812 310.773438 288.980469 C 309.390625 288.707031 308.023438 288.363281 306.671875 287.953125 C 305.324219 287.542969 303.996094 287.070312 302.695312 286.53125 C 301.390625 285.988281 300.117188 285.386719 298.871094 284.722656 C 297.628906 284.058594 296.421875 283.332031 295.246094 282.550781 C 294.074219 281.765625 292.941406 280.925781 291.851562 280.03125 C 290.761719 279.136719 289.71875 278.191406 288.71875 277.191406 C 287.722656 276.195312 286.777344 275.152344 285.882812 274.058594 C 284.988281 272.96875 284.148438 271.839844 283.363281 270.664062 C 282.582031 269.492188 281.855469 268.285156 281.191406 267.039062 C 280.527344 265.796875 279.921875 264.523438 279.382812 263.21875 C 278.84375 261.914062 278.371094 260.589844 277.960938 259.238281 C 277.550781 257.886719 277.207031 256.519531 276.933594 255.136719 C 276.65625 253.753906 276.449219 252.359375 276.3125 250.957031 C 276.175781 249.550781 276.105469 248.144531 276.105469 246.734375 C 276.105469 245.324219 276.175781 243.917969 276.3125 242.511719 C 276.449219 241.109375 276.65625 239.714844 276.933594 238.332031 C 277.207031 236.949219 277.550781 235.582031 277.960938 234.230469 C 278.371094 232.882812 278.84375 231.554688 279.382812 230.25 C 279.921875 228.949219 280.527344 227.675781 281.191406 226.429688 C 281.855469 225.1875 282.582031 223.976562 283.363281 222.804688 C 284.148438 221.632812 284.988281 220.5 285.882812 219.410156 C 286.777344 218.320312 287.722656 217.273438 288.71875 216.277344 C 289.71875 215.28125 290.761719 214.332031 291.851562 213.4375 C 292.941406 212.542969 294.074219 211.703125 295.246094 210.921875 C 296.421875 210.136719 297.628906 209.410156 298.871094 208.746094 C 300.117188 208.082031 301.390625 207.480469 302.695312 206.941406 C 303.996094 206.398438 305.324219 205.925781 306.671875 205.515625 C 308.023438 205.105469 309.390625 204.765625 310.773438 204.488281 C 312.15625 204.214844 313.550781 204.007812 314.953125 203.867188 C 316.359375 203.730469 317.765625 203.660156 319.175781 203.660156 C 320.585938 203.660156 321.992188 203.730469 323.398438 203.867188 C 324.800781 204.007812 326.195312 204.214844 327.578125 204.488281 C 328.960938 204.765625 330.328125 205.105469 331.679688 205.515625 C 333.027344 205.925781 334.355469 206.398438 335.660156 206.941406 C 336.960938 207.480469 338.234375 208.082031 339.480469 208.746094 C 340.722656 209.410156 341.933594 210.136719 343.105469 210.921875 C 344.277344 211.703125 345.410156 212.542969 346.5 213.4375 C 347.589844 214.332031 348.632812 215.28125 349.632812 216.277344 C 350.628906 217.273438 351.574219 218.320312 352.46875 219.410156 C 353.363281 220.5 354.203125 221.632812 354.988281 222.804688 C 355.773438 223.976562 356.496094 225.1875 357.160156 226.429688 C 357.824219 227.675781 358.429688 228.949219 358.96875 230.25 C 359.507812 231.554688 359.984375 232.882812 360.390625 234.230469 C 360.800781 235.582031 361.144531 236.949219 361.417969 238.332031 C 361.695312 239.714844 361.902344 241.109375 362.039062 242.511719 C 362.179688 243.917969 362.246094 245.324219 362.246094 246.734375 Z M 362.246094 246.734375 " fill-opacity="1" fill-rule="nonzero"/><path fill="#ed5580" d="M 347.4375 246.734375 C 347.4375 247.660156 347.390625 248.582031 347.300781 249.503906 C 347.210938 250.425781 347.074219 251.339844 346.894531 252.25 C 346.714844 253.15625 346.488281 254.054688 346.21875 254.9375 C 345.953125 255.824219 345.640625 256.695312 345.285156 257.550781 C 344.929688 258.40625 344.535156 259.242188 344.101562 260.058594 C 343.664062 260.875 343.1875 261.667969 342.675781 262.4375 C 342.160156 263.207031 341.609375 263.949219 341.023438 264.664062 C 340.433594 265.378906 339.8125 266.066406 339.160156 266.71875 C 338.503906 267.375 337.820312 267.996094 337.105469 268.582031 C 336.390625 269.167969 335.648438 269.71875 334.878906 270.234375 C 334.109375 270.75 333.316406 271.222656 332.5 271.660156 C 331.683594 272.097656 330.847656 272.492188 329.992188 272.847656 C 329.136719 273.199219 328.265625 273.511719 327.378906 273.78125 C 326.492188 274.050781 325.597656 274.273438 324.691406 274.453125 C 323.78125 274.636719 322.867188 274.769531 321.945312 274.863281 C 321.023438 274.953125 320.101562 274.996094 319.175781 274.996094 C 318.25 274.996094 317.328125 274.953125 316.40625 274.863281 C 315.484375 274.769531 314.570312 274.636719 313.664062 274.453125 C 312.753906 274.273438 311.859375 274.050781 310.972656 273.78125 C 310.085938 273.511719 309.214844 273.199219 308.359375 272.847656 C 307.507812 272.492188 306.671875 272.097656 305.855469 271.660156 C 305.039062 271.222656 304.246094 270.75 303.476562 270.234375 C 302.707031 269.71875 301.964844 269.167969 301.246094 268.582031 C 300.53125 267.996094 299.847656 267.375 299.191406 266.71875 C 298.539062 266.066406 297.917969 265.378906 297.332031 264.664062 C 296.742188 263.949219 296.191406 263.207031 295.679688 262.4375 C 295.164062 261.667969 294.6875 260.875 294.253906 260.058594 C 293.816406 259.242188 293.421875 258.40625 293.066406 257.550781 C 292.710938 256.695312 292.402344 255.824219 292.132812 254.9375 C 291.863281 254.054688 291.640625 253.15625 291.457031 252.25 C 291.277344 251.339844 291.140625 250.425781 291.050781 249.503906 C 290.960938 248.582031 290.914062 247.660156 290.914062 246.734375 C 290.914062 245.808594 290.960938 244.886719 291.050781 243.964844 C 291.140625 243.042969 291.277344 242.128906 291.457031 241.222656 C 291.640625 240.3125 291.863281 239.417969 292.132812 238.53125 C 292.402344 237.644531 292.710938 236.773438 293.066406 235.917969 C 293.421875 235.0625 293.816406 234.226562 294.253906 233.410156 C 294.6875 232.59375 295.164062 231.800781 295.679688 231.03125 C 296.191406 230.261719 296.742188 229.519531 297.332031 228.804688 C 297.917969 228.089844 298.539062 227.40625 299.191406 226.75 C 299.847656 226.09375 300.53125 225.472656 301.246094 224.886719 C 301.964844 224.300781 302.707031 223.75 303.476562 223.234375 C 304.246094 222.722656 305.039062 222.246094 305.855469 221.808594 C 306.671875 221.371094 307.507812 220.976562 308.359375 220.625 C 309.214844 220.269531 310.085938 219.957031 310.972656 219.6875 C 311.859375 219.421875 312.753906 219.195312 313.664062 219.015625 C 314.570312 218.835938 315.484375 218.699219 316.40625 218.609375 C 317.328125 218.515625 318.25 218.472656 319.175781 218.472656 C 320.101562 218.472656 321.023438 218.515625 321.945312 218.609375 C 322.867188 218.699219 323.78125 218.835938 324.691406 219.015625 C 325.597656 219.195312 326.492188 219.421875 327.378906 219.6875 C 328.265625 219.957031 329.136719 220.269531 329.992188 220.625 C 330.847656 220.976562 331.683594 221.371094 332.5 221.808594 C 333.316406 222.246094 334.109375 222.722656 334.878906 223.234375 C 335.648438 223.75 336.390625 224.300781 337.105469 224.886719 C 337.820312 225.472656 338.503906 226.09375 339.160156 226.75 C 339.8125 227.40625 340.433594 228.089844 341.023438 228.804688 C 341.609375 229.519531 342.160156 230.261719 342.675781 231.03125 C 343.1875 231.800781 343.664062 232.59375 344.101562 233.410156 C 344.535156 234.226562 344.929688 235.0625 345.285156 235.917969 C 345.640625 236.773438 345.953125 237.644531 346.21875 238.53125 C 346.488281 239.417969 346.714844 240.3125 346.894531 241.222656 C 347.074219 242.128906 347.210938 243.042969 347.300781 243.964844 C 347.390625 244.886719 347.4375 245.808594 347.4375 246.734375 Z M 347.4375 246.734375 " fill-opacity="1" fill-rule="nonzero"/><g clip-path="url(#2940fbee21)"><path fill="#171b1b" d="M 122.582031 246.734375 C 122.582031 248.261719 122.507812 249.78125 122.359375 251.300781 C 122.207031 252.816406 121.984375 254.324219 121.6875 255.820312 C 121.390625 257.316406 121.019531 258.792969 120.578125 260.253906 C 120.132812 261.710938 119.621094 263.144531 119.039062 264.554688 C 118.453125 265.964844 117.804688 267.339844 117.085938 268.6875 C 116.367188 270.03125 115.582031 271.339844 114.734375 272.605469 C 113.886719 273.875 112.980469 275.097656 112.011719 276.277344 C 111.046875 277.457031 110.023438 278.585938 108.945312 279.664062 C 107.867188 280.742188 106.738281 281.765625 105.558594 282.730469 C 104.378906 283.699219 103.15625 284.605469 101.886719 285.453125 C 100.621094 286.300781 99.3125 287.085938 97.96875 287.804688 C 96.625 288.523438 95.246094 289.175781 93.835938 289.757812 C 92.429688 290.339844 90.992188 290.855469 89.535156 291.296875 C 88.074219 291.742188 86.597656 292.109375 85.101562 292.40625 C 83.605469 292.707031 82.097656 292.929688 80.582031 293.078125 C 79.0625 293.226562 77.542969 293.304688 76.015625 293.304688 C 74.492188 293.304688 72.972656 293.226562 71.453125 293.078125 C 69.9375 292.929688 68.429688 292.707031 66.933594 292.40625 C 65.4375 292.109375 63.960938 291.742188 62.5 291.296875 C 61.039062 290.855469 59.605469 290.339844 58.199219 289.757812 C 56.789062 289.175781 55.410156 288.523438 54.066406 287.804688 C 52.722656 287.085938 51.414062 286.300781 50.148438 285.453125 C 48.878906 284.605469 47.65625 283.699219 46.476562 282.730469 C 45.296875 281.765625 44.167969 280.742188 43.089844 279.664062 C 42.011719 278.585938 40.988281 277.457031 40.023438 276.277344 C 39.054688 275.097656 38.148438 273.875 37.300781 272.605469 C 36.453125 271.339844 35.667969 270.03125 34.949219 268.6875 C 34.230469 267.339844 33.582031 265.964844 32.996094 264.554688 C 32.414062 263.144531 31.898438 261.710938 31.457031 260.253906 C 31.015625 258.792969 30.644531 257.316406 30.347656 255.820312 C 30.050781 254.324219 29.828125 252.816406 29.675781 251.300781 C 29.527344 249.78125 29.453125 248.261719 29.453125 246.734375 C 29.453125 245.210938 29.527344 243.6875 29.675781 242.171875 C 29.828125 240.652344 30.050781 239.144531 30.347656 237.648438 C 30.644531 236.152344 31.015625 234.675781 31.457031 233.214844 C 31.898438 231.757812 32.414062 230.324219 32.996094 228.914062 C 33.582031 227.503906 34.230469 226.128906 34.949219 224.78125 C 35.667969 223.4375 36.453125 222.132812 37.300781 220.863281 C 38.148438 219.59375 39.054688 218.371094 40.023438 217.191406 C 40.988281 216.011719 42.011719 214.882812 43.089844 213.804688 C 44.167969 212.726562 45.296875 211.703125 46.476562 210.738281 C 47.65625 209.769531 48.878906 208.863281 50.148438 208.015625 C 51.414062 207.167969 52.722656 206.382812 54.066406 205.664062 C 55.410156 204.945312 56.789062 204.296875 58.199219 203.710938 C 59.605469 203.128906 61.039062 202.613281 62.5 202.171875 C 63.960938 201.730469 65.4375 201.359375 66.933594 201.0625 C 68.429688 200.765625 69.9375 200.539062 71.453125 200.390625 C 72.972656 200.242188 74.492188 200.167969 76.015625 200.167969 C 77.542969 200.167969 79.0625 200.242188 80.582031 200.390625 C 82.097656 200.539062 83.605469 200.765625 85.101562 201.0625 C 86.597656 201.359375 88.074219 201.730469 89.535156 202.171875 C 90.992188 202.613281 92.429688 203.128906 93.835938 203.710938 C 95.246094 204.296875 96.625 204.945312 97.96875 205.664062 C 99.3125 206.382812 100.621094 207.167969 101.886719 208.015625 C 103.15625 208.863281 104.378906 209.769531 105.558594 210.738281 C 106.738281 211.703125 107.867188 212.726562 108.945312 213.804688 C 110.023438 214.882812 111.046875 216.011719 112.011719 217.191406 C 112.980469 218.371094 113.886719 219.59375 114.734375 220.863281 C 115.582031 222.132812 116.367188 223.4375 117.085938 224.78125 C 117.804688 226.128906 118.453125 227.503906 119.039062 228.914062 C 119.621094 230.324219 120.132812 231.757812 120.578125 233.214844 C 121.019531 234.675781 121.390625 236.152344 121.6875 237.648438 C 121.984375 239.144531 122.207031 240.652344 122.359375 242.171875 C 122.507812 243.6875 122.582031 245.210938 122.582031 246.734375 Z M 122.582031 246.734375 " fill-opacity="1" fill-rule="nonzero"/></g><path fill="#171b1b" d="M 119.089844 246.734375 C 119.089844 248.144531 119.019531 249.550781 118.882812 250.957031 C 118.742188 252.359375 118.535156 253.753906 118.261719 255.136719 C 117.984375 256.519531 117.644531 257.886719 117.234375 259.238281 C 116.824219 260.589844 116.347656 261.914062 115.808594 263.21875 C 115.269531 264.523438 114.667969 265.796875 114.003906 267.039062 C 113.335938 268.285156 112.613281 269.492188 111.828125 270.664062 C 111.046875 271.839844 110.207031 272.96875 109.3125 274.058594 C 108.417969 275.152344 107.46875 276.195312 106.472656 277.191406 C 105.476562 278.191406 104.433594 279.136719 103.339844 280.03125 C 102.25 280.925781 101.121094 281.765625 99.945312 282.550781 C 98.773438 283.332031 97.566406 284.058594 96.320312 284.722656 C 95.078125 285.386719 93.804688 285.988281 92.5 286.53125 C 91.195312 287.070312 89.871094 287.542969 88.519531 287.953125 C 87.171875 288.363281 85.804688 288.707031 84.421875 288.980469 C 83.035156 289.257812 81.644531 289.460938 80.238281 289.601562 C 78.835938 289.738281 77.429688 289.808594 76.015625 289.808594 C 74.605469 289.808594 73.199219 289.738281 71.796875 289.601562 C 70.390625 289.460938 69 289.257812 67.613281 288.980469 C 66.230469 288.707031 64.863281 288.363281 63.515625 287.953125 C 62.164062 287.542969 60.839844 287.070312 59.535156 286.53125 C 58.230469 285.988281 56.957031 285.386719 55.714844 284.722656 C 54.46875 284.058594 53.261719 283.332031 52.089844 282.550781 C 50.914062 281.765625 49.785156 280.925781 48.695312 280.03125 C 47.601562 279.136719 46.558594 278.191406 45.5625 277.191406 C 44.5625 276.195312 43.617188 275.152344 42.722656 274.058594 C 41.828125 272.96875 40.988281 271.839844 40.207031 270.664062 C 39.421875 269.492188 38.699219 268.285156 38.03125 267.039062 C 37.367188 265.796875 36.765625 264.523438 36.226562 263.21875 C 35.683594 261.914062 35.210938 260.589844 34.800781 259.238281 C 34.390625 257.886719 34.050781 256.519531 33.773438 255.136719 C 33.5 253.753906 33.292969 252.359375 33.152344 250.957031 C 33.015625 249.550781 32.945312 248.144531 32.945312 246.734375 C 32.945312 245.324219 33.015625 243.917969 33.152344 242.511719 C 33.292969 241.109375 33.5 239.714844 33.773438 238.332031 C 34.050781 236.949219 34.390625 235.582031 34.800781 234.230469 C 35.210938 232.882812 35.683594 231.554688 36.226562 230.25 C 36.765625 228.949219 37.367188 227.675781 38.03125 226.429688 C 38.699219 225.1875 39.421875 223.976562 40.207031 222.804688 C 40.988281 221.632812 41.828125 220.5 42.722656 219.410156 C 43.617188 218.320312 44.5625 217.273438 45.5625 216.277344 C 46.558594 215.28125 47.601562 214.332031 48.695312 213.4375 C 49.785156 212.542969 50.914062 211.703125 52.089844 210.921875 C 53.261719 210.136719 54.46875 209.410156 55.714844 208.746094 C 56.957031 208.082031 58.230469 207.480469 59.535156 206.941406 C 60.839844 206.398438 62.164062 205.925781 63.515625 205.515625 C 64.863281 205.105469 66.230469 204.765625 67.613281 204.488281 C 69 204.214844 70.390625 204.007812 71.796875 203.867188 C 73.199219 203.730469 74.605469 203.660156 76.015625 203.660156 C 77.429688 203.660156 78.835938 203.730469 80.238281 203.867188 C 81.644531 204.007812 83.035156 204.214844 84.421875 204.488281 C 85.804688 204.765625 87.171875 205.105469 88.519531 205.515625 C 89.871094 205.925781 91.195312 206.398438 92.5 206.941406 C 93.804688 207.480469 95.078125 208.082031 96.320312 208.746094 C 97.566406 209.410156 98.773438 210.136719 99.945312 210.921875 C 101.121094 211.703125 102.25 212.542969 103.339844 213.4375 C 104.433594 214.332031 105.476562 215.28125 106.472656 216.277344 C 107.46875 217.273438 108.417969 218.320312 109.3125 219.410156 C 110.207031 220.5 111.046875 221.632812 111.828125 222.804688 C 112.613281 223.976562 113.335938 225.1875 114.003906 226.429688 C 114.667969 227.675781 115.269531 228.949219 115.808594 230.25 C 116.347656 231.554688 116.824219 232.882812 117.234375 234.230469 C 117.644531 235.582031 117.984375 236.949219 118.261719 238.332031 C 118.535156 239.714844 118.742188 241.109375 118.882812 242.511719 C 119.019531 243.917969 119.089844 245.324219 119.089844 246.734375 Z M 119.089844 246.734375 " fill-opacity="1" fill-rule="nonzero"/><path fill="#ed5580" d="M 104.277344 246.734375 C 104.277344 247.660156 104.234375 248.582031 104.140625 249.503906 C 104.050781 250.425781 103.914062 251.339844 103.734375 252.25 C 103.554688 253.15625 103.332031 254.054688 103.0625 254.9375 C 102.792969 255.824219 102.480469 256.695312 102.128906 257.550781 C 101.773438 258.40625 101.378906 259.242188 100.941406 260.058594 C 100.503906 260.875 100.03125 261.667969 99.515625 262.4375 C 99 263.207031 98.449219 263.949219 97.863281 264.664062 C 97.277344 265.378906 96.65625 266.066406 96 266.71875 C 95.347656 267.375 94.660156 267.996094 93.945312 268.582031 C 93.230469 269.167969 92.488281 269.71875 91.71875 270.234375 C 90.949219 270.75 90.15625 271.222656 89.339844 271.660156 C 88.523438 272.097656 87.6875 272.492188 86.832031 272.847656 C 85.976562 273.199219 85.105469 273.511719 84.222656 273.78125 C 83.335938 274.050781 82.4375 274.273438 81.53125 274.453125 C 80.625 274.636719 79.707031 274.769531 78.789062 274.863281 C 77.867188 274.953125 76.941406 274.996094 76.015625 274.996094 C 75.09375 274.996094 74.167969 274.953125 73.246094 274.863281 C 72.328125 274.769531 71.410156 274.636719 70.503906 274.453125 C 69.597656 274.273438 68.699219 274.050781 67.8125 273.78125 C 66.929688 273.511719 66.058594 273.199219 65.203125 272.847656 C 64.347656 272.492188 63.511719 272.097656 62.695312 271.660156 C 61.878906 271.222656 61.085938 270.75 60.316406 270.234375 C 59.546875 269.71875 58.804688 269.167969 58.089844 268.582031 C 57.375 267.996094 56.6875 267.375 56.035156 266.71875 C 55.378906 266.066406 54.757812 265.378906 54.171875 264.664062 C 53.585938 263.949219 53.035156 263.207031 52.519531 262.4375 C 52.003906 261.667969 51.53125 260.875 51.09375 260.058594 C 50.65625 259.242188 50.261719 258.40625 49.90625 257.550781 C 49.554688 256.695312 49.242188 255.824219 48.972656 254.9375 C 48.703125 254.054688 48.480469 253.15625 48.300781 252.25 C 48.117188 251.339844 47.984375 250.425781 47.894531 249.503906 C 47.800781 248.582031 47.757812 247.660156 47.757812 246.734375 C 47.757812 245.808594 47.800781 244.886719 47.894531 243.964844 C 47.984375 243.042969 48.117188 242.128906 48.300781 241.222656 C 48.480469 240.3125 48.703125 239.417969 48.972656 238.53125 C 49.242188 237.644531 49.554688 236.773438 49.90625 235.917969 C 50.261719 235.0625 50.65625 234.226562 51.09375 233.410156 C 51.53125 232.59375 52.003906 231.800781 52.519531 231.03125 C 53.035156 230.261719 53.585938 229.519531 54.171875 228.804688 C 54.757812 228.089844 55.378906 227.40625 56.035156 226.75 C 56.6875 226.09375 57.375 225.472656 58.089844 224.886719 C 58.804688 224.300781 59.546875 223.75 60.316406 223.234375 C 61.085938 222.722656 61.878906 222.246094 62.695312 221.808594 C 63.511719 221.371094 64.347656 220.976562 65.203125 220.625 C 66.058594 220.269531 66.929688 219.957031 67.8125 219.6875 C 68.699219 219.421875 69.597656 219.195312 70.503906 219.015625 C 71.410156 218.835938 72.328125 218.699219 73.246094 218.609375 C 74.167969 218.515625 75.09375 218.472656 76.015625 218.472656 C 76.941406 218.472656 77.867188 218.515625 78.789062 218.609375 C 79.707031 218.699219 80.625 218.835938 81.53125 219.015625 C 82.4375 219.195312 83.335938 219.421875 84.222656 219.6875 C 85.105469 219.957031 85.976562 220.269531 86.832031 220.625 C 87.6875 220.976562 88.523438 221.371094 89.339844 221.808594 C 90.15625 222.246094 90.949219 222.722656 91.71875 223.234375 C 92.488281 223.75 93.230469 224.300781 93.945312 224.886719 C 94.660156 225.472656 95.347656 226.09375 96 226.75 C 96.65625 227.40625 97.277344 228.089844 97.863281 228.804688 C 98.449219 229.519531 99 230.261719 99.515625 231.03125 C 100.03125 231.800781 100.503906 232.59375 100.941406 233.410156 C 101.378906 234.226562 101.773438 235.0625 102.128906 235.917969 C 102.480469 236.773438 102.792969 237.644531 103.0625 238.53125 C 103.332031 239.417969 103.554688 240.3125 103.734375 241.222656 C 103.914062 242.128906 104.050781 243.042969 104.140625 243.964844 C 104.234375 244.886719 104.277344 245.808594 104.277344 246.734375 Z M 104.277344 246.734375 " fill-opacity="1" fill-rule="nonzero"/><path fill="#171b1b" d="M 122.582031 246.734375 C 122.582031 247.625 122.558594 248.511719 122.507812 249.390625 L 30.070312 254.328125 C 29.664062 251.855469 29.453125 249.320312 29.453125 246.734375 C 29.453125 221.015625 50.300781 200.167969 76.019531 200.167969 C 101.734375 200.167969 122.582031 221.015625 122.582031 246.734375 Z M 122.582031 246.734375 " fill-opacity="1" fill-rule="nonzero"/><path fill="#171b1b" d="M 352.839844 214.5625 C 345.878906 215.839844 312.71875 230.964844 290.914062 242.433594 C 282.617188 246.796875 275.964844 250.632812 273.027344 252.976562 C 273.019531 252.675781 272.613281 247.039062 272.613281 246.734375 C 272.613281 221.015625 293.457031 200.167969 319.175781 200.167969 C 332.414062 200.167969 344.363281 205.691406 352.839844 214.5625 Z M 352.839844 214.5625 " fill-opacity="1" fill-rule="nonzero"/><path fill="#ed5580" d="M 359.648438 205.878906 C 353.03125 187.625 334.53125 174.480469 312.742188 174.480469 C 309.246094 174.480469 305.835938 174.820312 302.546875 175.460938 C 302.152344 175.539062 301.761719 175.621094 301.371094 175.707031 C 279.511719 180.304688 262.308594 196.59375 258.851562 219.398438 C 257.925781 225.507812 257.332031 235.289062 256.917969 244.066406 C 261.0625 244.621094 269.453125 243.152344 269.453125 243.152344 C 271.613281 242.730469 273.71875 242.179688 275.761719 241.507812 C 276.117188 241.394531 276.460938 241.265625 276.808594 241.140625 C 277.136719 241.027344 277.464844 240.917969 277.785156 240.796875 C 278.125 240.671875 278.453125 240.53125 278.789062 240.398438 C 279.113281 240.269531 279.445312 240.144531 279.769531 240.007812 C 280.074219 239.878906 280.375 239.738281 280.679688 239.601562 C 281.019531 239.449219 281.363281 239.304688 281.703125 239.144531 C 282.09375 238.960938 282.476562 238.761719 282.863281 238.566406 C 283.105469 238.445312 283.351562 238.332031 283.589844 238.207031 C 283.910156 238.039062 284.21875 237.859375 284.535156 237.683594 C 284.832031 237.519531 285.132812 237.363281 285.425781 237.191406 C 285.703125 237.035156 285.96875 236.863281 286.242188 236.699219 C 286.566406 236.503906 286.894531 236.3125 287.210938 236.109375 C 287.523438 235.914062 287.828125 235.703125 288.132812 235.496094 C 288.402344 235.316406 288.675781 235.144531 288.941406 234.960938 C 289.203125 234.78125 289.453125 234.589844 289.707031 234.402344 C 290.011719 234.183594 290.316406 233.96875 290.617188 233.742188 C 290.851562 233.5625 291.078125 233.375 291.3125 233.191406 C 291.617188 232.949219 291.929688 232.710938 292.230469 232.460938 C 292.476562 232.253906 292.71875 232.039062 292.960938 231.828125 C 293.234375 231.589844 293.515625 231.359375 293.785156 231.117188 C 293.996094 230.921875 294.199219 230.722656 294.410156 230.527344 C 294.699219 230.253906 294.992188 229.988281 295.273438 229.710938 C 295.476562 229.511719 295.667969 229.304688 295.867188 229.101562 C 296.144531 228.816406 296.425781 228.535156 296.699219 228.246094 C 296.90625 228.023438 297.105469 227.789062 297.308594 227.558594 C 297.558594 227.28125 297.8125 227.007812 298.054688 226.726562 C 298.054688 226.722656 298.054688 226.722656 298.054688 226.722656 C 298.0625 226.714844 298.074219 226.710938 298.074219 226.703125 C 298.621094 226.066406 299.140625 225.417969 299.648438 224.753906 C 308.710938 214.082031 322.722656 207.234375 338.445312 207.234375 C 344.4375 207.234375 350.675781 207.457031 355.820312 208.109375 C 358.53125 208.453125 360.578125 208.449219 359.644531 205.878906 Z M 359.648438 205.878906 " fill-opacity="1" fill-rule="nonzero"/><path fill="#171b1b" d="M 312.742188 174.480469 C 314.378906 174.480469 315.996094 174.554688 317.589844 174.703125 C 315.769531 174.863281 313.980469 175.117188 312.222656 175.460938 C 311.824219 175.539062 311.433594 175.621094 311.042969 175.707031 C 289.1875 180.300781 271.980469 196.59375 268.527344 219.398438 C 267.617188 225.394531 267.027344 234.933594 266.613281 243.582031 C 263.792969 243.964844 259.519531 244.414062 256.917969 244.066406 C 257.332031 235.289062 257.925781 225.507812 258.851562 219.398438 C 262.308594 196.59375 279.511719 180.300781 301.367188 175.707031 C 301.757812 175.621094 302.152344 175.539062 302.546875 175.460938 C 305.835938 174.820312 309.246094 174.480469 312.742188 174.480469 Z M 312.742188 174.480469 " fill-opacity="1" fill-rule="nonzero"/><g clip-path="url(#d24d743e1d)"><path fill="#ed5580" d="M 251.925781 48.808594 C 252.71875 43.292969 249.121094 38.207031 246.527344 37.835938 C 244.886719 37.597656 243.328125 41.9375 242.53125 47.453125 C 241.949219 51.488281 242.132812 55.058594 242.773438 56.757812 L 241.167969 67.875 L 244.3125 68.328125 L 245.898438 57.34375 C 248.410156 56.164062 251.328125 52.957031 251.925781 48.808594 Z M 251.925781 48.808594 " fill-opacity="1" fill-rule="nonzero"/></g><path fill="#ed5580" d="M 243.078125 54.648438 L 246.222656 55.101562 L 244.316406 68.328125 L 241.167969 67.871094 Z M 243.078125 54.648438 " fill-opacity="1" fill-rule="nonzero"/><path fill="#171b1b" d="M 242.226562 62.882812 L 241.894531 62.835938 L 243.078125 54.652344 L 246.222656 55.105469 L 245.445312 60.476562 C 245.222656 62.03125 243.78125 63.109375 242.226562 62.882812 Z M 242.226562 62.882812 " fill-opacity="1" fill-rule="nonzero"/><g clip-path="url(#8462abfb5f)"><path fill="#ed5580" d="M 251.925781 48.808594 C 251.128906 54.320312 246.238281 58.179688 243.644531 57.804688 C 242.367188 57.621094 241.734375 52.964844 242.53125 47.453125 C 243.328125 41.9375 244.886719 37.597656 246.527344 37.835938 C 249.121094 38.207031 252.71875 43.292969 251.925781 48.808594 Z M 251.925781 48.808594 " fill-opacity="1" fill-rule="nonzero"/></g><path fill="#171b1b" d="M 248.574219 39.011719 L 248.296875 39.511719 L 248.074219 40.046875 C 247.929688 40.402344 247.824219 40.777344 247.703125 41.144531 C 247.488281 41.890625 247.296875 42.640625 247.128906 43.398438 C 246.796875 44.917969 246.542969 46.449219 246.351562 47.992188 C 246.140625 49.53125 245.984375 51.078125 245.898438 52.628906 L 245.851562 53.792969 L 245.84375 54.957031 C 245.84375 55.34375 245.859375 55.730469 245.867188 56.117188 C 245.890625 56.503906 245.925781 56.890625 245.957031 57.277344 C 245.957031 57.3125 245.933594 57.34375 245.898438 57.347656 C 245.871094 57.347656 245.84375 57.332031 245.835938 57.308594 L 245.828125 57.292969 C 245.199219 55.789062 244.96875 54.164062 244.886719 52.578125 C 244.832031 51.78125 244.859375 50.988281 244.878906 50.195312 C 244.890625 49.796875 244.933594 49.402344 244.96875 49.007812 C 245.007812 48.613281 245.035156 48.21875 245.089844 47.824219 C 245.210938 47.042969 245.339844 46.257812 245.503906 45.480469 C 245.703125 44.710938 245.871094 43.933594 246.144531 43.179688 C 246.269531 42.800781 246.402344 42.421875 246.554688 42.050781 C 246.707031 41.675781 246.882812 41.308594 247.050781 40.945312 C 247.140625 40.761719 247.246094 40.582031 247.347656 40.40625 C 247.449219 40.230469 247.535156 40.050781 247.667969 39.882812 C 247.789062 39.710938 247.90625 39.542969 248.03125 39.382812 L 248.472656 38.9375 L 248.476562 38.9375 C 248.5 38.910156 248.539062 38.910156 248.566406 38.9375 C 248.585938 38.957031 248.589844 38.988281 248.574219 39.011719 Z M 248.574219 39.011719 " fill-opacity="1" fill-rule="nonzero"/><path fill="#ed5580" d="M 256.519531 220.253906 L 240.84375 208.644531 C 238.417969 206.851562 237.207031 203.847656 237.703125 200.871094 L 244.492188 159.171875 L 244.609375 159.074219 L 249.800781 125.773438 L 268.183594 125.773438 Z M 256.519531 220.253906 " fill-opacity="1" fill-rule="nonzero"/><path fill="#171b1b" d="M 244.476562 159.273438 L 249.800781 125.773438 L 268.183594 125.773438 L 258.128906 207.242188 Z M 244.476562 159.273438 " fill-opacity="1" fill-rule="nonzero"/><path fill="#ed5580" d="M 230.902344 75.390625 L 241.136719 68.484375 L 260.003906 96.445312 L 249.769531 103.351562 Z M 230.902344 75.390625 " fill-opacity="1" fill-rule="nonzero"/><path fill="#ed5580" d="M 260.832031 85.917969 L 239.0625 84.820312 C 234.019531 84.566406 230.0625 80.40625 230.0625 75.355469 L 230.0625 75.324219 C 230.0625 70.199219 234.132812 66.003906 239.253906 65.851562 L 260.832031 65.203125 Z M 260.832031 85.917969 " fill-opacity="1" fill-rule="nonzero"/><path fill="#171b1b" d="M 246.296875 98.503906 C 246.296875 98.503906 251.183594 87.066406 248.175781 79.1875 C 250.261719 81.859375 254.765625 88.601562 256.917969 91.832031 L 256.914062 91.933594 C 257.625 92.996094 258.03125 93.640625 258.03125 93.640625 Z M 246.296875 98.503906 " fill-opacity="1" fill-rule="nonzero"/><path fill="#ed5580" d="M 298.429688 181.589844 L 261.683594 229.210938 L 250.144531 219.8125 L 256.054688 160.519531 L 242.171875 110.550781 C 240.835938 105.742188 242.828125 100.625 247.0625 97.980469 L 256.917969 91.832031 L 299.316406 155.125 C 304.742188 163.21875 304.382812 173.875 298.429688 181.589844 Z M 298.429688 181.589844 " fill-opacity="1" fill-rule="nonzero"/><path fill="#171b1b" d="M 174.90625 139.742188 C 174.90625 139.742188 174.847656 140.121094 174.785156 140.476562 C 170.511719 146.410156 167.121094 151.003906 163.179688 158 L 162.28125 158.429688 C 161.164062 160.53125 159.554688 163.730469 158.8125 165.726562 L 67.472656 165.726562 L 56.65625 140.414062 L 56.6875 140.351562 L 56.390625 139.652344 Z M 174.90625 139.742188 " fill-opacity="1" fill-rule="nonzero"/><path fill="#ed5580" d="M 178.363281 125.648438 C 178.335938 126.277344 178.277344 126.960938 178.191406 127.710938 C 178.097656 128.5625 177.964844 129.492188 177.804688 130.511719 C 177.804688 130.511719 176.515625 138.929688 174.785156 140.476562 C 162.996094 142.164062 143.105469 141.726562 120.515625 141.726562 C 118.738281 141.726562 116.925781 141.730469 115.085938 141.734375 L 114.539062 141.734375 C 113.53125 141.734375 112.515625 141.738281 111.496094 141.742188 L 110.6875 141.742188 C 106.265625 141.753906 101.746094 141.769531 97.277344 141.769531 C 80.753906 141.769531 64.882812 141.582031 56.9375 140.414062 C 54.117188 138.449219 52.769531 134.964844 53.539062 131.617188 C 54.140625 128.984375 54.882812 125.730469 55.59375 122.578125 C 55.746094 121.902344 55.898438 121.238281 56.042969 120.578125 C 56.117188 120.242188 56.191406 119.914062 56.265625 119.585938 C 56.304688 119.398438 56.347656 119.214844 56.390625 119.027344 C 56.4375 118.800781 56.503906 118.574219 56.582031 118.347656 C 56.589844 118.324219 56.832031 118.292969 56.839844 118.265625 C 56.839844 118.265625 58.1875 116.015625 58.285156 115.8125 L 58.214844 115.726562 C 63.492188 110.136719 79.976562 107.066406 114.953125 115.949219 C 115.898438 116.1875 122.910156 117.402344 126.433594 117.855469 C 128.148438 118.078125 144.105469 119.835938 156.664062 119.417969 C 166.105469 119.109375 173.753906 118.527344 176.761719 120.53125 L 176.617188 120.78125 C 176.695312 120.976562 178.019531 123.085938 178.019531 123.085938 L 178.269531 123.238281 C 178.324219 123.617188 178.359375 124.027344 178.371094 124.46875 C 178.382812 124.835938 178.378906 125.230469 178.363281 125.648438 Z M 178.363281 125.648438 " fill-opacity="1" fill-rule="nonzero"/><path fill="#ffffff" d="M 178.269531 123.238281 C 175.152344 124.175781 169.957031 125.046875 161.105469 125.578125 C 155.644531 125.90625 149.167969 126.070312 142.054688 126.070312 C 135.558594 126.070312 128.535156 125.933594 121.257812 125.65625 C 119.421875 125.589844 117.585938 125.511719 115.757812 125.421875 L 115.753906 125.421875 C 115.371094 125.40625 114.984375 125.386719 114.605469 125.367188 L 113.953125 125.335938 L 113.34375 125.308594 C 112.535156 125.265625 111.726562 125.222656 110.917969 125.183594 C 110.578125 125.164062 110.234375 125.144531 109.898438 125.125 C 99.210938 124.535156 88.917969 123.695312 80.109375 122.683594 C 71.996094 121.753906 61.753906 120.277344 56.582031 118.347656 C 56.664062 118.117188 56.757812 117.886719 56.867188 117.660156 C 57.1875 116.992188 57.628906 116.347656 58.214844 115.726562 C 61.824219 116.925781 69.589844 118.550781 84.214844 120.078125 C 92.160156 120.910156 101.058594 121.597656 110.128906 122.097656 C 110.4375 122.117188 110.746094 122.136719 111.058594 122.152344 C 111.988281 122.203125 112.921875 122.25 113.859375 122.296875 C 113.902344 122.296875 113.953125 122.296875 114 122.300781 C 114.035156 122.300781 114.070312 122.304688 114.109375 122.304688 C 122.125 122.699219 130.1875 122.949219 137.761719 123.015625 C 159.007812 123.210938 171.175781 122.007812 176.761719 120.53125 C 177.316406 120.894531 177.714844 121.359375 177.933594 121.933594 C 178.011719 122.132812 178.074219 122.335938 178.128906 122.558594 C 178.183594 122.773438 178.230469 123 178.269531 123.238281 Z M 178.269531 123.238281 " fill-opacity="1" fill-rule="nonzero"/><path fill="#ed5580" d="M 205.070312 240.511719 C 188.601562 243.03125 158.035156 242.476562 116.925781 242.476562 C 64.515625 242.476562 11.710938 249.847656 11.710938 220.179688 C 11.710938 198.910156 34.320312 177.019531 55.410156 164.460938 C 71.8125 154.695312 92.839844 148.828125 115.769531 148.828125 C 133.066406 148.828125 149.28125 152.167969 163.246094 158 C 159.621094 165.25 157.648438 173.070312 157.648438 181.21875 C 157.648438 206.550781 176.722656 228.671875 205.070312 240.511719 Z M 205.070312 240.511719 " fill-opacity="1" fill-rule="nonzero"/><path fill="#171b1b" d="M 101.429688 210.035156 L 133.765625 210.035156 L 133.765625 213.003906 L 101.429688 213.003906 Z M 101.429688 210.035156 " fill-opacity="1" fill-rule="nonzero"/><path fill="#171b1b" d="M 98.164062 215.929688 L 130.5 215.929688 L 130.5 218.902344 L 98.164062 218.902344 Z M 98.164062 215.929688 " fill-opacity="1" fill-rule="nonzero"/><path fill="#171b1b" d="M 94.894531 221.828125 L 127.230469 221.828125 L 127.230469 224.796875 L 94.894531 224.796875 Z M 94.894531 221.828125 " fill-opacity="1" fill-rule="nonzero"/><path fill="#171b1b" d="M 91.609375 227.722656 L 123.949219 227.722656 L 123.949219 230.695312 L 91.609375 230.695312 Z M 91.609375 227.722656 " fill-opacity="1" fill-rule="nonzero"/><path fill="#ed5580" d="M 220.570312 251.597656 L 138.101562 251.597656 C 133.386719 251.597656 129.015625 249.125 126.589844 245.085938 L 124.523438 241.648438 L 136.546875 215.527344 L 261.683594 215.527344 L 261.683594 229.210938 L 247.710938 241.414062 C 240.191406 247.980469 230.550781 251.597656 220.570312 251.597656 Z M 220.570312 251.597656 " fill-opacity="1" fill-rule="nonzero"/><path fill="#171b1b" d="M 237.917969 231.628906 L 158.164062 231.628906 L 170.394531 215.527344 L 250.144531 215.527344 Z M 237.917969 231.628906 " fill-opacity="1" fill-rule="nonzero"/><path fill="#171b1b" d="M 20.792969 225.496094 C 22.875 221.5 25.035156 217.539062 27.335938 213.652344 C 29.667969 209.785156 32.148438 206 34.820312 202.34375 C 37.480469 198.671875 40.40625 195.191406 43.515625 191.875 C 46.636719 188.570312 49.953125 185.433594 53.507812 182.582031 C 54.375 181.839844 55.300781 181.175781 56.203125 180.480469 L 57.566406 179.449219 C 58.019531 179.101562 58.496094 178.789062 58.957031 178.457031 C 59.894531 177.8125 60.820312 177.144531 61.769531 176.511719 L 64.644531 174.664062 C 68.527344 172.226562 72.675781 170.152344 76.976562 168.503906 C 85.589844 165.230469 94.84375 163.566406 104.105469 163.742188 C 108.734375 163.800781 113.363281 164.289062 117.921875 165.203125 L 121.320312 165.980469 C 122.445312 166.261719 123.554688 166.609375 124.675781 166.925781 C 125.234375 167.085938 125.789062 167.238281 126.375 167.460938 C 126.953125 167.664062 127.535156 167.867188 128.089844 168.117188 C 128.652344 168.355469 129.21875 168.589844 129.757812 168.871094 C 130.304688 169.144531 130.855469 169.40625 131.378906 169.71875 C 133.496094 170.921875 135.492188 172.34375 137.300781 173.976562 C 139.097656 175.628906 140.726562 177.46875 142.121094 179.484375 L 142.632812 180.242188 L 142.890625 180.625 L 143.121094 181.019531 L 144.042969 182.613281 L 144.851562 184.261719 L 145.050781 184.675781 L 145.222656 185.101562 L 145.558594 185.957031 L 145.890625 186.8125 C 145.992188 187.101562 146.074219 187.398438 146.167969 187.6875 C 146.34375 188.273438 146.546875 188.851562 146.691406 189.445312 L 147.097656 191.226562 C 147.175781 191.523438 147.222656 191.824219 147.265625 192.125 L 147.402344 193.027344 C 147.613281 194.226562 147.640625 195.441406 147.734375 196.648438 C 147.75 197.25 147.738281 197.851562 147.738281 198.453125 L 147.734375 199.359375 C 147.726562 199.660156 147.691406 199.957031 147.671875 200.253906 L 147.527344 202.046875 C 147.46875 202.640625 147.359375 203.226562 147.277344 203.816406 L 147.140625 204.699219 C 147.101562 204.992188 147.050781 205.289062 146.980469 205.574219 L 146.585938 207.308594 C 145.460938 211.902344 143.710938 216.265625 141.492188 220.320312 C 141.238281 220.839844 140.933594 221.328125 140.644531 221.828125 L 139.769531 223.320312 C 139.210938 224.324219 138.550781 225.265625 137.917969 226.222656 L 136.964844 227.652344 L 135.945312 229.035156 L 134.929688 230.410156 L 134.421875 231.101562 L 133.886719 231.765625 L 131.71875 234.402344 C 130.976562 235.265625 130.214844 236.109375 129.453125 236.949219 L 128.308594 238.207031 L 127.117188 239.421875 C 126.316406 240.222656 125.523438 241.027344 124.714844 241.816406 L 124.332031 241.480469 L 126.320312 238.746094 L 127.324219 237.394531 L 128.277344 236.007812 C 128.902344 235.078125 129.5625 234.171875 130.183594 233.242188 L 131.988281 230.421875 L 132.441406 229.722656 L 132.867188 229.003906 L 134.5625 226.136719 L 135.34375 224.667969 C 136.410156 222.730469 137.378906 220.746094 138.277344 218.746094 C 138.6875 217.730469 139.140625 216.730469 139.523438 215.710938 C 139.878906 214.679688 140.285156 213.667969 140.617188 212.636719 L 141.082031 211.078125 C 141.230469 210.558594 141.410156 210.046875 141.515625 209.519531 L 141.882812 207.949219 L 142.0625 207.164062 L 142.195312 206.375 L 142.457031 204.796875 C 142.511719 204.535156 142.542969 204.269531 142.566406 204.003906 L 142.644531 203.214844 C 142.691406 202.6875 142.769531 202.160156 142.796875 201.632812 L 142.847656 200.054688 C 142.851562 199.789062 142.871094 199.527344 142.867188 199.265625 L 142.839844 198.480469 C 142.816406 197.957031 142.8125 197.433594 142.78125 196.914062 C 142.652344 195.878906 142.601562 194.835938 142.375 193.824219 L 142.238281 193.0625 C 142.199219 192.804688 142.152344 192.550781 142.082031 192.304688 L 141.699219 190.804688 C 141.570312 190.304688 141.378906 189.828125 141.226562 189.335938 C 141.140625 189.09375 141.066406 188.847656 140.976562 188.605469 L 140.679688 187.898438 L 140.382812 187.1875 L 140.238281 186.832031 L 140.066406 186.488281 L 139.386719 185.109375 L 138.609375 183.78125 L 138.414062 183.449219 L 138.195312 183.132812 L 137.761719 182.496094 C 135.441406 179.117188 132.375 176.207031 128.839844 174.074219 C 128.40625 173.785156 127.949219 173.550781 127.496094 173.300781 C 127.050781 173.039062 126.582031 172.828125 126.117188 172.609375 C 125.65625 172.375 125.179688 172.191406 124.703125 172 C 124.246094 171.800781 123.71875 171.636719 123.203125 171.464844 C 122.167969 171.132812 121.144531 170.761719 120.097656 170.457031 L 116.945312 169.609375 C 112.703125 168.617188 108.363281 168.011719 103.996094 167.8125 C 95.257812 167.421875 86.425781 168.773438 78.140625 171.683594 C 73.988281 173.128906 69.988281 174.972656 66.175781 177.203125 L 63.316406 178.917969 C 62.371094 179.503906 61.453125 180.128906 60.519531 180.730469 C 60.054688 181.039062 59.578125 181.328125 59.128906 181.652344 L 57.769531 182.617188 C 56.867188 183.269531 55.945312 183.890625 55.078125 184.585938 C 51.507812 187.238281 48.160156 190.1875 44.988281 193.3125 C 41.824219 196.449219 38.820312 199.769531 36.066406 203.296875 C 33.300781 206.808594 30.710938 210.472656 28.25 214.222656 C 25.804688 217.988281 23.484375 221.839844 21.238281 225.738281 Z M 20.792969 225.496094 " fill-opacity="1" fill-rule="nonzero"/><path fill="#ed5580" d="M 274.070312 88.652344 L 274.070312 89.75 C 272.53125 89.75 269.28125 89.722656 267.132812 89.722656 C 255.210938 89.722656 245.546875 82.773438 245.546875 74.207031 C 245.546875 65.632812 255.210938 58.6875 267.132812 58.6875 C 269.277344 58.6875 271.773438 58.742188 274.097656 58.699219 L 274.210938 59.816406 Z M 274.070312 88.652344 " fill-opacity="1" fill-rule="nonzero"/><path fill="#171b1b" d="M 276.121094 74.226562 C 276.121094 80.855469 275.574219 86.515625 274.800781 88.738281 C 274.574219 89.390625 274.328125 89.75 274.070312 89.75 C 273.859375 89.75 273.65625 89.507812 273.46875 89.058594 C 272.628906 87.09375 272.023438 81.195312 272.023438 74.226562 C 272.023438 67.257812 272.628906 61.363281 273.464844 59.394531 C 273.65625 58.941406 273.859375 58.699219 274.070312 58.699219 C 274.328125 58.699219 274.574219 59.058594 274.800781 59.710938 C 275.574219 61.941406 276.121094 67.601562 276.121094 74.226562 Z M 276.121094 74.226562 " fill-opacity="1" fill-rule="nonzero"/><g clip-path="url(#7c5312b8ee)"><path fill="#ed5580" d="M 27.511719 194.519531 L 12.246094 194.519531 C 10.28125 194.519531 9.109375 192.332031 10.195312 190.695312 L 22.328125 172.449219 C 23.320312 170.953125 24.996094 170.058594 26.789062 170.058594 L 50.128906 170.058594 C 40.914062 177.152344 27.511719 194.519531 27.511719 194.519531 Z M 27.511719 194.519531 " fill-opacity="1" fill-rule="nonzero"/></g><path fill="#171b1b" d="M 27.511719 194.519531 L 19.882812 194.519531 L 36.21875 170.058594 L 50.128906 170.058594 C 39.117188 179.824219 27.511719 194.519531 27.511719 194.519531 Z M 27.511719 194.519531 " fill-opacity="1" fill-rule="nonzero"/><path fill="#ffffff" d="M 40.269531 175.863281 L 22.121094 175.863281 L 23.457031 174.203125 L 41.605469 174.203125 Z M 40.269531 175.863281 " fill-opacity="1" fill-rule="nonzero"/><path fill="#171b1b" d="M 227.914062 89.378906 L 226.921875 88.476562 C 224.605469 86.371094 224.4375 82.785156 226.546875 80.46875 L 234.875 71.316406 C 236.980469 69 240.566406 68.832031 242.882812 70.9375 L 243.875 71.839844 C 246.1875 73.945312 246.359375 77.53125 244.25 79.847656 L 235.921875 89.003906 C 233.816406 91.316406 230.230469 91.488281 227.914062 89.378906 Z M 227.914062 89.378906 " fill-opacity="1" fill-rule="nonzero"/><g clip-path="url(#6318aa2086)"><path fill="#ffffff" d="M 50.847656 234.84375 C 51.972656 227.894531 53.660156 221.246094 55.921875 214.902344 C 58.179688 208.558594 61.027344 202.566406 64.460938 196.929688 C 64.503906 203.722656 63.964844 210.511719 64.144531 217.289062 C 64.257812 221.566406 65.289062 225.164062 69.984375 226.328125 C 71.746094 220.417969 73.4375 213.964844 76.042969 208.390625 C 75.910156 210.910156 76.089844 213.4375 76.980469 215.816406 C 78.105469 218.835938 81.292969 223.019531 86.382812 222.394531 C 76.589844 216.253906 83.425781 204.472656 81.101562 201.753906 C 79.890625 200.566406 77.929688 199.238281 76.15625 199.714844 C 73.535156 200.414062 69.761719 213.003906 68.96875 215.664062 L 69.210938 197.414062 C 69.285156 196.539062 69.042969 195.757812 68.511719 195.0625 C 67.402344 193.847656 63.996094 191.507812 62.472656 193.042969 C 61.296875 194.234375 60.074219 196.019531 58.804688 198.390625 C 56.003906 203.628906 49.941406 219.21875 48.382812 228.230469 C 47.640625 232.507812 49.21875 233.878906 50.847656 234.84375 " fill-opacity="1" fill-rule="evenodd"/></g><path fill="#ffffff" d="M 66.894531 209.222656 C 43.9375 199.320312 30.9375 220.390625 47.195312 225.066406 C 47.253906 224.332031 47.257812 223.019531 46.351562 222.394531 C 39.402344 216.683594 49.371094 207.652344 63.070312 210.011719 C 64.394531 210.242188 65.8125 210.796875 66.894531 209.222656 " fill-opacity="1" fill-rule="evenodd"/><g mask="url(#fd79c887ab)"><g transform="matrix(1, 0, 0, 1, 53, 209)"><g clip-path="url(#3daaab186e)"><g clip-path="url(#6f12ba8e91)"><path fill="#1a2237" d="M 0.777344 1.132812 C 0.582031 1.652344 0.386719 2.183594 0.191406 2.714844 C 1.476562 2.449219 2.851562 2.285156 4.300781 2.25 C 4.519531 1.710938 4.738281 1.171875 4.964844 0.636719 C 3.484375 0.675781 2.082031 0.851562 0.777344 1.132812 " fill-opacity="1" fill-rule="evenodd"/></g></g></g></g><path fill="#ffffff" d="M 87.382812 214 C 88.570312 213.886719 89.628906 214.757812 89.742188 215.945312 C 89.855469 217.136719 88.984375 218.191406 87.796875 218.308594 C 86.605469 218.421875 85.546875 217.550781 85.433594 216.359375 C 85.320312 215.171875 86.191406 214.113281 87.382812 214 " fill-opacity="1" fill-rule="evenodd"/></svg>