<svg xmlns="http://www.w3.org/2000/svg" xmlns:xlink="http://www.w3.org/1999/xlink" width="500" zoomAndPan="magnify" viewBox="0 0 375 374.999991" height="500" preserveAspectRatio="xMidYMid meet" version="1.0"><defs><filter x="0%" y="0%" width="100%" height="100%" id="63d55f5a72"><feColorMatrix values="0 0 0 0 1 0 0 0 0 1 0 0 0 0 1 0 0 0 1 0" color-interpolation-filters="sRGB"/></filter><clipPath id="ff656de990"><path d="M 259 216 L 337.5 216 L 337.5 295.125 L 259 295.125 Z M 259 216 " clip-rule="nonzero"/></clipPath><clipPath id="0693b9d57e"><path d="M 54 216 L 133 216 L 133 295.125 L 54 295.125 Z M 54 216 " clip-rule="nonzero"/></clipPath><clipPath id="50b75aefd3"><path d="M 67 206 L 104 206 L 104 244.820312 L 67 244.820312 Z M 67 206 " clip-rule="nonzero"/></clipPath><mask id="d92c8ac515"><g filter="url(#63d55f5a72)"><rect x="-37.5" width="450" fill="#000000" y="-37.499999" height="449.999989" fill-opacity="0.25"/></g></mask><clipPath id="8127db49ed"><path d="M 0.238281 0.761719 L 5 0.761719 L 5 2.921875 L 0.238281 2.921875 Z M 0.238281 0.761719 " clip-rule="nonzero"/></clipPath><clipPath id="36ffff3358"><rect x="0" width="6" y="0" height="3"/></clipPath><clipPath id="93e389a423"><path d="M 102 225 L 106.660156 225 L 106.660156 230 L 102 230 Z M 102 225 " clip-rule="nonzero"/></clipPath></defs><g clip-path="url(#ff656de990)"><path fill="#171b1b" d="M 337.511719 255.875 C 337.511719 257.15625 337.449219 258.4375 337.324219 259.714844 C 337.199219 260.992188 337.011719 262.257812 336.761719 263.515625 C 336.511719 264.773438 336.199219 266.019531 335.828125 267.246094 C 335.453125 268.472656 335.023438 269.679688 334.53125 270.863281 C 334.039062 272.050781 333.492188 273.207031 332.886719 274.339844 C 332.28125 275.472656 331.625 276.570312 330.910156 277.636719 C 330.199219 278.703125 329.433594 279.734375 328.621094 280.726562 C 327.808594 281.714844 326.945312 282.667969 326.039062 283.574219 C 325.132812 284.480469 324.183594 285.339844 323.191406 286.15625 C 322.199219 286.96875 321.171875 287.730469 320.105469 288.445312 C 319.039062 289.15625 317.9375 289.816406 316.808594 290.421875 C 315.675781 291.027344 314.515625 291.574219 313.332031 292.0625 C 312.148438 292.554688 310.941406 292.988281 309.710938 293.359375 C 308.484375 293.730469 307.242188 294.042969 305.984375 294.292969 C 304.726562 294.542969 303.457031 294.730469 302.179688 294.859375 C 300.90625 294.984375 299.625 295.046875 298.34375 295.046875 C 297.058594 295.046875 295.777344 294.984375 294.503906 294.859375 C 293.226562 294.730469 291.957031 294.542969 290.699219 294.292969 C 289.441406 294.042969 288.199219 293.730469 286.972656 293.359375 C 285.742188 292.988281 284.535156 292.554688 283.351562 292.0625 C 282.167969 291.574219 281.007812 291.027344 279.875 290.421875 C 278.746094 289.816406 277.644531 289.15625 276.578125 288.445312 C 275.511719 287.730469 274.484375 286.96875 273.492188 286.15625 C 272.5 285.339844 271.550781 284.480469 270.644531 283.574219 C 269.738281 282.667969 268.875 281.714844 268.0625 280.726562 C 267.25 279.734375 266.484375 278.703125 265.773438 277.636719 C 265.058594 276.570312 264.402344 275.472656 263.796875 274.339844 C 263.191406 273.207031 262.644531 272.050781 262.152344 270.863281 C 261.660156 269.679688 261.230469 268.472656 260.859375 267.246094 C 260.484375 266.019531 260.175781 264.773438 259.921875 263.515625 C 259.671875 262.257812 259.484375 260.992188 259.359375 259.714844 C 259.234375 258.4375 259.171875 257.15625 259.171875 255.875 C 259.171875 254.59375 259.234375 253.3125 259.359375 252.035156 C 259.484375 250.757812 259.671875 249.492188 259.921875 248.234375 C 260.175781 246.976562 260.484375 245.730469 260.859375 244.503906 C 261.230469 243.277344 261.660156 242.070312 262.152344 240.886719 C 262.644531 239.699219 263.191406 238.542969 263.796875 237.410156 C 264.402344 236.277344 265.058594 235.179688 265.773438 234.113281 C 266.484375 233.046875 267.25 232.015625 268.0625 231.023438 C 268.875 230.035156 269.738281 229.085938 270.644531 228.175781 C 271.550781 227.269531 272.5 226.410156 273.492188 225.59375 C 274.484375 224.78125 275.511719 224.019531 276.578125 223.304688 C 277.644531 222.59375 278.746094 221.933594 279.875 221.328125 C 281.007812 220.726562 282.167969 220.175781 283.351562 219.6875 C 284.539062 219.195312 285.742188 218.761719 286.972656 218.390625 C 288.199219 218.019531 289.441406 217.707031 290.699219 217.457031 C 291.957031 217.207031 293.226562 217.019531 294.503906 216.894531 C 295.777344 216.765625 297.058594 216.703125 298.34375 216.703125 C 299.625 216.703125 300.90625 216.765625 302.179688 216.894531 C 303.457031 217.019531 304.726562 217.207031 305.984375 217.457031 C 307.242188 217.707031 308.484375 218.019531 309.710938 218.390625 C 310.941406 218.761719 312.148438 219.195312 313.332031 219.6875 C 314.515625 220.175781 315.675781 220.726562 316.808594 221.328125 C 317.9375 221.933594 319.039062 222.59375 320.105469 223.304688 C 321.171875 224.019531 322.199219 224.78125 323.191406 225.59375 C 324.183594 226.410156 325.132812 227.269531 326.039062 228.175781 C 326.945312 229.085938 327.808594 230.035156 328.621094 231.023438 C 329.433594 232.015625 330.199219 233.046875 330.910156 234.113281 C 331.625 235.179688 332.28125 236.277344 332.886719 237.410156 C 333.492188 238.542969 334.039062 239.699219 334.53125 240.886719 C 335.023438 242.070312 335.453125 243.277344 335.828125 244.503906 C 336.199219 245.730469 336.511719 246.976562 336.761719 248.234375 C 337.011719 249.492188 337.199219 250.757812 337.324219 252.035156 C 337.449219 253.3125 337.511719 254.59375 337.511719 255.875 Z M 337.511719 255.875 " fill-opacity="1" fill-rule="nonzero"/></g><path fill="#171b1b" d="M 334.574219 255.875 C 334.574219 257.0625 334.515625 258.246094 334.398438 259.425781 C 334.28125 260.605469 334.109375 261.78125 333.878906 262.945312 C 333.644531 264.105469 333.359375 265.257812 333.011719 266.394531 C 332.667969 267.527344 332.269531 268.644531 331.816406 269.742188 C 331.363281 270.835938 330.855469 271.90625 330.296875 272.953125 C 329.734375 274 329.125 275.019531 328.46875 276.003906 C 327.808594 276.992188 327.101562 277.941406 326.347656 278.859375 C 325.597656 279.777344 324.800781 280.65625 323.960938 281.496094 C 323.121094 282.332031 322.246094 283.128906 321.328125 283.882812 C 320.410156 284.636719 319.457031 285.339844 318.472656 286 C 317.484375 286.660156 316.46875 287.269531 315.421875 287.828125 C 314.375 288.386719 313.304688 288.894531 312.207031 289.347656 C 311.109375 289.804688 309.996094 290.203125 308.859375 290.546875 C 307.722656 290.890625 306.574219 291.179688 305.410156 291.410156 C 304.246094 291.640625 303.074219 291.816406 301.894531 291.933594 C 300.710938 292.046875 299.527344 292.105469 298.34375 292.105469 C 297.15625 292.105469 295.972656 292.046875 294.789062 291.933594 C 293.609375 291.816406 292.4375 291.640625 291.273438 291.410156 C 290.109375 291.179688 288.960938 290.890625 287.824219 290.546875 C 286.6875 290.203125 285.574219 289.804688 284.476562 289.347656 C 283.378906 288.894531 282.308594 288.386719 281.261719 287.828125 C 280.214844 287.269531 279.199219 286.660156 278.210938 286 C 277.226562 285.339844 276.273438 284.636719 275.355469 283.882812 C 274.441406 283.128906 273.5625 282.332031 272.722656 281.496094 C 271.882812 280.65625 271.085938 279.777344 270.335938 278.859375 C 269.582031 277.941406 268.875 276.992188 268.214844 276.003906 C 267.558594 275.019531 266.949219 274 266.386719 272.953125 C 265.828125 271.90625 265.324219 270.835938 264.867188 269.742188 C 264.414062 268.644531 264.015625 267.527344 263.671875 266.394531 C 263.324219 265.257812 263.039062 264.105469 262.804688 262.945312 C 262.574219 261.78125 262.402344 260.605469 262.285156 259.425781 C 262.167969 258.246094 262.109375 257.0625 262.109375 255.875 C 262.109375 254.6875 262.167969 253.503906 262.285156 252.324219 C 262.402344 251.144531 262.574219 249.96875 262.804688 248.808594 C 263.039062 247.644531 263.324219 246.492188 263.671875 245.359375 C 264.015625 244.222656 264.414062 243.105469 264.867188 242.011719 C 265.324219 240.914062 265.828125 239.84375 266.386719 238.796875 C 266.949219 237.75 267.558594 236.734375 268.214844 235.746094 C 268.875 234.757812 269.582031 233.808594 270.335938 232.890625 C 271.085938 231.972656 271.882812 231.09375 272.722656 230.253906 C 273.5625 229.417969 274.441406 228.621094 275.355469 227.867188 C 276.273438 227.113281 277.226562 226.410156 278.210938 225.75 C 279.199219 225.089844 280.214844 224.480469 281.261719 223.921875 C 282.308594 223.363281 283.378906 222.855469 284.476562 222.402344 C 285.574219 221.949219 286.6875 221.546875 287.824219 221.203125 C 288.960938 220.859375 290.109375 220.570312 291.273438 220.339844 C 292.4375 220.109375 293.609375 219.933594 294.789062 219.816406 C 295.972656 219.703125 297.15625 219.644531 298.34375 219.644531 C 299.527344 219.644531 300.710938 219.703125 301.894531 219.816406 C 303.074219 219.933594 304.246094 220.109375 305.410156 220.339844 C 306.574219 220.570312 307.722656 220.859375 308.859375 221.203125 C 309.996094 221.546875 311.109375 221.949219 312.207031 222.402344 C 313.304688 222.855469 314.375 223.363281 315.421875 223.921875 C 316.46875 224.480469 317.484375 225.089844 318.472656 225.75 C 319.457031 226.410156 320.410156 227.113281 321.328125 227.867188 C 322.246094 228.621094 323.121094 229.417969 323.960938 230.253906 C 324.800781 231.09375 325.597656 231.972656 326.347656 232.890625 C 327.101562 233.808594 327.808594 234.757812 328.46875 235.746094 C 329.125 236.734375 329.734375 237.75 330.296875 238.796875 C 330.855469 239.84375 331.363281 240.914062 331.816406 242.011719 C 332.269531 243.105469 332.667969 244.222656 333.011719 245.359375 C 333.359375 246.492188 333.644531 247.644531 333.878906 248.808594 C 334.109375 249.96875 334.28125 251.144531 334.398438 252.324219 C 334.515625 253.503906 334.574219 254.6875 334.574219 255.875 Z M 334.574219 255.875 " fill-opacity="1" fill-rule="nonzero"/><path fill="#ed5580" d="M 322.117188 255.875 C 322.117188 256.652344 322.078125 257.429688 322 258.207031 C 321.925781 258.980469 321.808594 259.75 321.660156 260.511719 C 321.507812 261.277344 321.316406 262.03125 321.089844 262.777344 C 320.867188 263.519531 320.605469 264.253906 320.304688 264.972656 C 320.007812 265.691406 319.675781 266.394531 319.308594 267.082031 C 318.941406 267.769531 318.542969 268.433594 318.109375 269.082031 C 317.675781 269.730469 317.214844 270.355469 316.71875 270.957031 C 316.226562 271.558594 315.703125 272.136719 315.152344 272.683594 C 314.601562 273.234375 314.027344 273.757812 313.421875 274.253906 C 312.820312 274.746094 312.195312 275.210938 311.550781 275.640625 C 310.902344 276.074219 310.234375 276.472656 309.546875 276.839844 C 308.863281 277.207031 308.160156 277.539062 307.441406 277.839844 C 306.71875 278.136719 305.988281 278.398438 305.242188 278.625 C 304.496094 278.851562 303.742188 279.039062 302.980469 279.191406 C 302.214844 279.34375 301.445312 279.457031 300.671875 279.535156 C 299.898438 279.609375 299.121094 279.648438 298.34375 279.648438 C 297.5625 279.648438 296.785156 279.609375 296.011719 279.535156 C 295.238281 279.457031 294.46875 279.34375 293.703125 279.191406 C 292.941406 279.039062 292.1875 278.851562 291.441406 278.625 C 290.695312 278.398438 289.964844 278.136719 289.246094 277.839844 C 288.523438 277.539062 287.820312 277.207031 287.136719 276.839844 C 286.449219 276.472656 285.78125 276.074219 285.132812 275.640625 C 284.488281 275.210938 283.863281 274.746094 283.261719 274.253906 C 282.660156 273.757812 282.082031 273.234375 281.53125 272.683594 C 280.980469 272.136719 280.457031 271.558594 279.964844 270.957031 C 279.472656 270.355469 279.007812 269.730469 278.574219 269.082031 C 278.140625 268.433594 277.742188 267.769531 277.375 267.082031 C 277.007812 266.394531 276.675781 265.691406 276.378906 264.972656 C 276.082031 264.253906 275.816406 263.519531 275.59375 262.777344 C 275.367188 262.03125 275.175781 261.277344 275.023438 260.511719 C 274.875 259.75 274.757812 258.980469 274.683594 258.207031 C 274.605469 257.429688 274.570312 256.652344 274.570312 255.875 C 274.570312 255.097656 274.605469 254.320312 274.683594 253.546875 C 274.757812 252.769531 274.875 252 275.023438 251.238281 C 275.175781 250.472656 275.367188 249.71875 275.59375 248.972656 C 275.816406 248.230469 276.082031 247.496094 276.378906 246.777344 C 276.675781 246.058594 277.007812 245.355469 277.375 244.667969 C 277.742188 243.980469 278.140625 243.316406 278.574219 242.667969 C 279.007812 242.019531 279.472656 241.394531 279.964844 240.792969 C 280.457031 240.191406 280.980469 239.617188 281.53125 239.066406 C 282.082031 238.515625 282.660156 237.992188 283.261719 237.496094 C 283.863281 237.003906 284.488281 236.539062 285.132812 236.109375 C 285.78125 235.675781 286.449219 235.277344 287.136719 234.910156 C 287.820312 234.542969 288.523438 234.210938 289.246094 233.910156 C 289.964844 233.613281 290.695312 233.351562 291.441406 233.125 C 292.1875 232.898438 292.941406 232.710938 293.703125 232.558594 C 294.46875 232.40625 295.238281 232.292969 296.011719 232.214844 C 296.785156 232.140625 297.5625 232.101562 298.34375 232.101562 C 299.121094 232.101562 299.898438 232.140625 300.671875 232.214844 C 301.445312 232.292969 302.214844 232.40625 302.980469 232.558594 C 303.742188 232.710938 304.496094 232.898438 305.242188 233.125 C 305.988281 233.351562 306.71875 233.613281 307.441406 233.910156 C 308.160156 234.210938 308.863281 234.542969 309.546875 234.910156 C 310.234375 235.277344 310.902344 235.675781 311.550781 236.109375 C 312.195312 236.539062 312.820312 237.003906 313.421875 237.496094 C 314.027344 237.992188 314.601562 238.515625 315.152344 239.066406 C 315.703125 239.617188 316.226562 240.191406 316.71875 240.792969 C 317.214844 241.394531 317.675781 242.019531 318.109375 242.667969 C 318.542969 243.316406 318.941406 243.980469 319.308594 244.667969 C 319.675781 245.355469 320.007812 246.058594 320.304688 246.777344 C 320.605469 247.496094 320.867188 248.230469 321.089844 248.972656 C 321.316406 249.71875 321.507812 250.472656 321.660156 251.238281 C 321.808594 252 321.925781 252.769531 322 253.546875 C 322.078125 254.320312 322.117188 255.097656 322.117188 255.875 Z M 322.117188 255.875 " fill-opacity="1" fill-rule="nonzero"/><g clip-path="url(#0693b9d57e)"><path fill="#171b1b" d="M 132.964844 255.875 C 132.964844 257.15625 132.902344 258.4375 132.777344 259.714844 C 132.652344 260.992188 132.460938 262.257812 132.210938 263.515625 C 131.960938 264.773438 131.652344 266.019531 131.277344 267.246094 C 130.90625 268.472656 130.472656 269.679688 129.984375 270.863281 C 129.492188 272.050781 128.945312 273.207031 128.339844 274.339844 C 127.734375 275.472656 127.078125 276.570312 126.363281 277.636719 C 125.652344 278.703125 124.886719 279.734375 124.074219 280.726562 C 123.261719 281.714844 122.398438 282.667969 121.492188 283.574219 C 120.585938 284.480469 119.636719 285.339844 118.644531 286.15625 C 117.652344 286.96875 116.625 287.730469 115.554688 288.445312 C 114.488281 289.15625 113.390625 289.816406 112.257812 290.421875 C 111.128906 291.027344 109.96875 291.574219 108.785156 292.0625 C 107.597656 292.554688 106.390625 292.988281 105.164062 293.359375 C 103.9375 293.730469 102.695312 294.042969 101.4375 294.292969 C 100.179688 294.542969 98.910156 294.730469 97.632812 294.859375 C 96.355469 294.984375 95.078125 295.046875 93.792969 295.046875 C 92.511719 295.046875 91.230469 294.984375 89.953125 294.859375 C 88.679688 294.730469 87.410156 294.542969 86.152344 294.292969 C 84.894531 294.042969 83.652344 293.730469 82.421875 293.359375 C 81.195312 292.988281 79.988281 292.554688 78.804688 292.0625 C 77.617188 291.574219 76.460938 291.027344 75.328125 290.421875 C 74.199219 289.816406 73.097656 289.15625 72.03125 288.445312 C 70.964844 287.730469 69.9375 286.96875 68.945312 286.15625 C 67.953125 285.339844 67.003906 284.480469 66.097656 283.574219 C 65.1875 282.667969 64.328125 281.714844 63.515625 280.726562 C 62.699219 279.734375 61.9375 278.703125 61.222656 277.636719 C 60.511719 276.570312 59.851562 275.472656 59.25 274.339844 C 58.644531 273.207031 58.097656 272.050781 57.605469 270.863281 C 57.113281 269.679688 56.683594 268.472656 56.308594 267.246094 C 55.9375 266.019531 55.625 264.773438 55.375 263.515625 C 55.125 262.257812 54.9375 260.992188 54.8125 259.714844 C 54.6875 258.4375 54.625 257.15625 54.625 255.875 C 54.625 254.59375 54.6875 253.3125 54.8125 252.035156 C 54.9375 250.757812 55.125 249.492188 55.375 248.234375 C 55.625 246.976562 55.9375 245.730469 56.308594 244.503906 C 56.683594 243.277344 57.113281 242.070312 57.605469 240.886719 C 58.097656 239.699219 58.644531 238.542969 59.25 237.410156 C 59.851562 236.277344 60.511719 235.179688 61.222656 234.113281 C 61.9375 233.046875 62.699219 232.015625 63.515625 231.023438 C 64.328125 230.035156 65.1875 229.085938 66.097656 228.175781 C 67.003906 227.269531 67.953125 226.410156 68.945312 225.59375 C 69.9375 224.78125 70.964844 224.019531 72.03125 223.304688 C 73.097656 222.59375 74.199219 221.933594 75.328125 221.328125 C 76.460938 220.726562 77.617188 220.175781 78.804688 219.6875 C 79.988281 219.195312 81.195312 218.761719 82.421875 218.390625 C 83.652344 218.019531 84.894531 217.707031 86.152344 217.457031 C 87.410156 217.207031 88.679688 217.019531 89.953125 216.894531 C 91.230469 216.765625 92.511719 216.703125 93.792969 216.703125 C 95.078125 216.703125 96.355469 216.765625 97.632812 216.894531 C 98.910156 217.019531 100.179688 217.207031 101.4375 217.457031 C 102.695312 217.707031 103.9375 218.019531 105.164062 218.390625 C 106.390625 218.761719 107.597656 219.195312 108.785156 219.6875 C 109.96875 220.175781 111.128906 220.726562 112.257812 221.328125 C 113.390625 221.933594 114.488281 222.59375 115.554688 223.304688 C 116.625 224.019531 117.652344 224.78125 118.644531 225.59375 C 119.636719 226.410156 120.585938 227.269531 121.492188 228.175781 C 122.398438 229.085938 123.261719 230.035156 124.074219 231.023438 C 124.886719 232.015625 125.652344 233.046875 126.363281 234.113281 C 127.078125 235.179688 127.734375 236.277344 128.339844 237.410156 C 128.945312 238.542969 129.492188 239.699219 129.984375 240.886719 C 130.472656 242.070312 130.90625 243.277344 131.277344 244.503906 C 131.652344 245.730469 131.960938 246.976562 132.210938 248.234375 C 132.460938 249.492188 132.652344 250.757812 132.777344 252.035156 C 132.902344 253.3125 132.964844 254.59375 132.964844 255.875 Z M 132.964844 255.875 " fill-opacity="1" fill-rule="nonzero"/></g><path fill="#171b1b" d="M 130.027344 255.875 C 130.027344 257.0625 129.96875 258.246094 129.851562 259.425781 C 129.734375 260.605469 129.5625 261.78125 129.328125 262.945312 C 129.097656 264.105469 128.808594 265.257812 128.464844 266.394531 C 128.121094 267.527344 127.722656 268.644531 127.269531 269.742188 C 126.8125 270.835938 126.308594 271.90625 125.746094 272.953125 C 125.1875 274 124.578125 275.019531 123.917969 276.003906 C 123.261719 276.992188 122.554688 277.941406 121.800781 278.859375 C 121.046875 279.777344 120.253906 280.65625 119.414062 281.496094 C 118.574219 282.332031 117.695312 283.128906 116.777344 283.882812 C 115.863281 284.636719 114.910156 285.339844 113.921875 286 C 112.9375 286.660156 111.921875 287.269531 110.875 287.828125 C 109.828125 288.386719 108.753906 288.894531 107.660156 289.347656 C 106.5625 289.804688 105.445312 290.203125 104.3125 290.546875 C 103.175781 290.890625 102.027344 291.179688 100.863281 291.410156 C 99.699219 291.640625 98.527344 291.816406 97.34375 291.933594 C 96.164062 292.046875 94.980469 292.105469 93.792969 292.105469 C 92.609375 292.105469 91.421875 292.046875 90.242188 291.933594 C 89.0625 291.816406 87.890625 291.640625 86.726562 291.410156 C 85.5625 291.179688 84.414062 290.890625 83.277344 290.546875 C 82.140625 290.203125 81.023438 289.804688 79.929688 289.347656 C 78.832031 288.894531 77.761719 288.386719 76.714844 287.828125 C 75.667969 287.269531 74.652344 286.660156 73.664062 286 C 72.679688 285.339844 71.726562 284.636719 70.808594 283.882812 C 69.890625 283.128906 69.011719 282.332031 68.175781 281.496094 C 67.335938 280.65625 66.539062 279.777344 65.785156 278.859375 C 65.035156 277.941406 64.328125 276.992188 63.667969 276.003906 C 63.007812 275.019531 62.398438 274 61.839844 272.953125 C 61.28125 271.90625 60.773438 270.835938 60.320312 269.742188 C 59.867188 268.644531 59.46875 267.527344 59.121094 266.394531 C 58.777344 265.257812 58.488281 264.105469 58.257812 262.945312 C 58.027344 261.78125 57.851562 260.605469 57.738281 259.425781 C 57.621094 258.246094 57.5625 257.0625 57.5625 255.875 C 57.5625 254.6875 57.621094 253.503906 57.738281 252.324219 C 57.851562 251.144531 58.027344 249.96875 58.257812 248.808594 C 58.488281 247.644531 58.777344 246.492188 59.121094 245.359375 C 59.46875 244.222656 59.867188 243.105469 60.320312 242.011719 C 60.773438 240.914062 61.28125 239.84375 61.839844 238.796875 C 62.398438 237.75 63.007812 236.734375 63.667969 235.746094 C 64.328125 234.757812 65.035156 233.808594 65.785156 232.890625 C 66.539062 231.972656 67.335938 231.09375 68.175781 230.253906 C 69.011719 229.417969 69.890625 228.621094 70.808594 227.867188 C 71.726562 227.113281 72.679688 226.410156 73.664062 225.75 C 74.652344 225.089844 75.667969 224.480469 76.714844 223.921875 C 77.761719 223.363281 78.832031 222.855469 79.929688 222.402344 C 81.023438 221.949219 82.140625 221.546875 83.277344 221.203125 C 84.414062 220.859375 85.5625 220.570312 86.726562 220.339844 C 87.890625 220.109375 89.0625 219.933594 90.242188 219.816406 C 91.421875 219.703125 92.609375 219.644531 93.792969 219.644531 C 94.980469 219.644531 96.164062 219.703125 97.34375 219.816406 C 98.527344 219.933594 99.699219 220.109375 100.863281 220.339844 C 102.027344 220.570312 103.175781 220.859375 104.3125 221.203125 C 105.445312 221.546875 106.5625 221.949219 107.660156 222.402344 C 108.753906 222.855469 109.828125 223.363281 110.875 223.921875 C 111.921875 224.480469 112.9375 225.089844 113.921875 225.75 C 114.910156 226.410156 115.863281 227.113281 116.777344 227.867188 C 117.695312 228.621094 118.574219 229.417969 119.414062 230.253906 C 120.253906 231.09375 121.046875 231.972656 121.800781 232.890625 C 122.554688 233.808594 123.261719 234.757812 123.917969 235.746094 C 124.578125 236.734375 125.1875 237.75 125.746094 238.796875 C 126.308594 239.84375 126.8125 240.914062 127.269531 242.011719 C 127.722656 243.105469 128.121094 244.222656 128.464844 245.359375 C 128.808594 246.492188 129.097656 247.644531 129.328125 248.808594 C 129.5625 249.96875 129.734375 251.144531 129.851562 252.324219 C 129.96875 253.503906 130.027344 254.6875 130.027344 255.875 Z M 130.027344 255.875 " fill-opacity="1" fill-rule="nonzero"/><path fill="#ed5580" d="M 117.566406 255.875 C 117.566406 256.652344 117.53125 257.429688 117.453125 258.207031 C 117.375 258.980469 117.261719 259.75 117.109375 260.511719 C 116.957031 261.277344 116.769531 262.03125 116.542969 262.777344 C 116.316406 263.519531 116.054688 264.253906 115.757812 264.972656 C 115.460938 265.691406 115.128906 266.394531 114.761719 267.082031 C 114.394531 267.769531 113.992188 268.433594 113.5625 269.082031 C 113.128906 269.730469 112.664062 270.355469 112.171875 270.957031 C 111.675781 271.558594 111.15625 272.136719 110.605469 272.683594 C 110.054688 273.234375 109.476562 273.757812 108.875 274.253906 C 108.273438 274.746094 107.648438 275.210938 107 275.640625 C 106.355469 276.074219 105.6875 276.472656 105 276.839844 C 104.3125 277.207031 103.609375 277.539062 102.890625 277.839844 C 102.171875 278.136719 101.441406 278.398438 100.695312 278.625 C 99.949219 278.851562 99.195312 279.039062 98.433594 279.191406 C 97.667969 279.34375 96.898438 279.457031 96.125 279.535156 C 95.347656 279.609375 94.574219 279.648438 93.792969 279.648438 C 93.015625 279.648438 92.238281 279.609375 91.464844 279.535156 C 90.6875 279.457031 89.917969 279.34375 89.15625 279.191406 C 88.390625 279.039062 87.636719 278.851562 86.894531 278.625 C 86.148438 278.398438 85.414062 278.136719 84.695312 277.839844 C 83.976562 277.539062 83.273438 277.207031 82.585938 276.839844 C 81.902344 276.472656 81.234375 276.074219 80.585938 275.640625 C 79.9375 275.210938 79.3125 274.746094 78.710938 274.253906 C 78.109375 273.757812 77.535156 273.234375 76.984375 272.683594 C 76.433594 272.136719 75.910156 271.558594 75.417969 270.957031 C 74.921875 270.355469 74.460938 269.730469 74.027344 269.082031 C 73.59375 268.433594 73.195312 267.769531 72.828125 267.082031 C 72.460938 266.394531 72.128906 265.691406 71.832031 264.972656 C 71.53125 264.253906 71.269531 263.519531 71.042969 262.777344 C 70.816406 262.03125 70.628906 261.277344 70.476562 260.511719 C 70.324219 259.75 70.210938 258.980469 70.136719 258.207031 C 70.058594 257.429688 70.019531 256.652344 70.019531 255.875 C 70.019531 255.097656 70.058594 254.320312 70.136719 253.546875 C 70.210938 252.769531 70.324219 252 70.476562 251.238281 C 70.628906 250.472656 70.816406 249.71875 71.042969 248.972656 C 71.269531 248.230469 71.53125 247.496094 71.832031 246.777344 C 72.128906 246.058594 72.460938 245.355469 72.828125 244.667969 C 73.195312 243.980469 73.59375 243.316406 74.027344 242.667969 C 74.460938 242.019531 74.921875 241.394531 75.417969 240.792969 C 75.910156 240.191406 76.433594 239.617188 76.984375 239.066406 C 77.535156 238.515625 78.109375 237.992188 78.710938 237.496094 C 79.3125 237.003906 79.9375 236.539062 80.585938 236.109375 C 81.234375 235.675781 81.902344 235.277344 82.585938 234.910156 C 83.273438 234.542969 83.976562 234.210938 84.695312 233.910156 C 85.414062 233.613281 86.148438 233.351562 86.894531 233.125 C 87.636719 232.898438 88.390625 232.710938 89.15625 232.558594 C 89.917969 232.40625 90.6875 232.292969 91.464844 232.214844 C 92.238281 232.140625 93.015625 232.101562 93.792969 232.101562 C 94.574219 232.101562 95.347656 232.140625 96.125 232.214844 C 96.898438 232.292969 97.667969 232.40625 98.433594 232.558594 C 99.195312 232.710938 99.949219 232.898438 100.695312 233.125 C 101.441406 233.351562 102.171875 233.613281 102.890625 233.910156 C 103.609375 234.210938 104.3125 234.542969 105 234.910156 C 105.6875 235.277344 106.355469 235.675781 107 236.109375 C 107.648438 236.539062 108.273438 237.003906 108.875 237.496094 C 109.476562 237.992188 110.054688 238.515625 110.605469 239.066406 C 111.15625 239.617188 111.675781 240.191406 112.171875 240.792969 C 112.664062 241.394531 113.128906 242.019531 113.5625 242.667969 C 113.992188 243.316406 114.394531 243.980469 114.761719 244.667969 C 115.128906 245.355469 115.460938 246.058594 115.757812 246.777344 C 116.054688 247.496094 116.316406 248.230469 116.542969 248.972656 C 116.769531 249.71875 116.957031 250.472656 117.109375 251.238281 C 117.261719 252 117.375 252.769531 117.453125 253.546875 C 117.53125 254.320312 117.566406 255.097656 117.566406 255.875 Z M 117.566406 255.875 " fill-opacity="1" fill-rule="nonzero"/><path fill="#171b1b" d="M 132.964844 255.875 C 132.964844 256.625 132.945312 257.371094 132.902344 258.109375 L 55.140625 262.261719 C 54.800781 260.183594 54.625 258.050781 54.625 255.875 C 54.625 234.242188 72.160156 216.703125 93.792969 216.703125 C 115.429688 216.703125 132.964844 234.242188 132.964844 255.875 Z M 132.964844 255.875 " fill-opacity="1" fill-rule="nonzero"/><path fill="#171b1b" d="M 326.660156 228.8125 C 320.804688 229.886719 292.910156 242.609375 274.570312 252.257812 C 267.589844 255.929688 261.992188 259.15625 259.519531 261.125 C 259.515625 260.871094 259.171875 256.132812 259.171875 255.875 C 259.171875 234.242188 276.707031 216.707031 298.34375 216.707031 C 309.480469 216.707031 319.53125 221.351562 326.660156 228.8125 Z M 326.660156 228.8125 " fill-opacity="1" fill-rule="nonzero"/><path fill="#ed5580" d="M 332.386719 221.507812 C 326.820312 206.152344 311.257812 195.097656 292.929688 195.097656 C 289.988281 195.097656 287.121094 195.382812 284.355469 195.921875 C 284.023438 195.988281 283.691406 196.058594 283.363281 196.128906 C 264.976562 199.996094 250.503906 213.699219 247.597656 232.878906 C 246.820312 238.019531 246.320312 246.25 245.96875 253.628906 C 249.457031 254.097656 256.515625 252.863281 256.515625 252.863281 C 258.332031 252.507812 260.101562 252.042969 261.824219 251.480469 C 262.117188 251.382812 262.410156 251.273438 262.703125 251.171875 C 262.976562 251.074219 263.253906 250.984375 263.523438 250.882812 C 263.808594 250.773438 264.085938 250.660156 264.367188 250.546875 C 264.640625 250.4375 264.917969 250.332031 265.191406 250.21875 C 265.449219 250.109375 265.703125 249.988281 265.957031 249.875 C 266.246094 249.746094 266.535156 249.625 266.820312 249.492188 C 267.148438 249.335938 267.472656 249.167969 267.796875 249.003906 C 267.996094 248.902344 268.207031 248.804688 268.40625 248.699219 C 268.675781 248.558594 268.9375 248.410156 269.203125 248.261719 C 269.453125 248.125 269.707031 247.992188 269.953125 247.847656 C 270.183594 247.714844 270.410156 247.570312 270.636719 247.433594 C 270.910156 247.269531 271.183594 247.109375 271.453125 246.9375 C 271.714844 246.773438 271.972656 246.59375 272.230469 246.421875 C 272.457031 246.273438 272.6875 246.125 272.910156 245.972656 C 273.125 245.820312 273.335938 245.660156 273.550781 245.503906 C 273.808594 245.316406 274.066406 245.136719 274.316406 244.945312 C 274.515625 244.796875 274.707031 244.636719 274.902344 244.484375 C 275.160156 244.277344 275.421875 244.078125 275.675781 243.867188 C 275.882812 243.695312 276.085938 243.511719 276.289062 243.335938 C 276.519531 243.136719 276.753906 242.941406 276.980469 242.738281 C 277.160156 242.574219 277.332031 242.40625 277.507812 242.242188 C 277.75 242.011719 277.996094 241.789062 278.234375 241.554688 C 278.40625 241.386719 278.566406 241.210938 278.734375 241.042969 C 278.96875 240.804688 279.207031 240.566406 279.433594 240.324219 C 279.609375 240.132812 279.777344 239.9375 279.945312 239.746094 C 280.15625 239.511719 280.371094 239.28125 280.574219 239.046875 C 280.574219 239.042969 280.574219 239.042969 280.574219 239.042969 C 280.582031 239.035156 280.589844 239.03125 280.589844 239.023438 C 281.050781 238.488281 281.488281 237.941406 281.914062 237.386719 C 289.539062 228.410156 301.324219 222.648438 314.554688 222.648438 C 319.589844 222.648438 324.839844 222.835938 329.167969 223.386719 C 331.449219 223.675781 333.167969 223.671875 332.386719 221.507812 Z M 332.386719 221.507812 " fill-opacity="1" fill-rule="nonzero"/><path fill="#171b1b" d="M 292.929688 195.097656 C 294.304688 195.097656 295.667969 195.160156 297.007812 195.285156 C 295.476562 195.421875 293.972656 195.632812 292.492188 195.921875 C 292.160156 195.988281 291.832031 196.058594 291.5 196.128906 C 273.113281 199.996094 258.640625 213.699219 255.734375 232.878906 C 254.96875 237.925781 254.472656 245.949219 254.128906 253.222656 C 251.753906 253.542969 248.15625 253.921875 245.96875 253.628906 C 246.320312 246.246094 246.820312 238.019531 247.597656 232.878906 C 250.503906 213.699219 264.976562 199.996094 283.363281 196.128906 C 283.691406 196.058594 284.023438 195.988281 284.355469 195.921875 C 287.121094 195.382812 289.988281 195.097656 292.929688 195.097656 Z M 292.929688 195.097656 " fill-opacity="1" fill-rule="nonzero"/><path fill="#ed5580" d="M 241.769531 89.386719 C 242.4375 84.75 239.410156 80.472656 237.226562 80.15625 C 235.847656 79.957031 234.535156 83.609375 233.867188 88.246094 C 233.378906 91.640625 233.53125 94.644531 234.070312 96.074219 L 232.722656 105.425781 L 235.367188 105.808594 L 236.699219 96.566406 C 238.8125 95.578125 241.265625 92.875 241.769531 89.386719 Z M 241.769531 89.386719 " fill-opacity="1" fill-rule="nonzero"/><path fill="#ed5580" d="M 234.328125 94.300781 L 236.972656 94.683594 L 235.367188 105.804688 L 232.722656 105.425781 Z M 234.328125 94.300781 " fill-opacity="1" fill-rule="nonzero"/><path fill="#171b1b" d="M 233.613281 101.226562 L 233.332031 101.1875 L 234.324219 94.304688 L 236.972656 94.683594 L 236.320312 99.203125 C 236.132812 100.511719 234.917969 101.417969 233.613281 101.226562 Z M 233.613281 101.226562 " fill-opacity="1" fill-rule="nonzero"/><path fill="#ed5580" d="M 241.769531 89.386719 C 241.101562 94.027344 236.988281 97.273438 234.804688 96.957031 C 233.730469 96.800781 233.199219 92.886719 233.867188 88.246094 C 234.539062 83.609375 235.847656 79.957031 237.226562 80.15625 C 239.410156 80.472656 242.4375 84.75 241.769531 89.386719 Z M 241.769531 89.386719 " fill-opacity="1" fill-rule="nonzero"/><path fill="#171b1b" d="M 238.953125 81.148438 L 238.71875 81.570312 L 238.53125 82.019531 C 238.410156 82.320312 238.320312 82.632812 238.21875 82.941406 C 238.035156 83.566406 237.875 84.199219 237.734375 84.839844 C 237.457031 86.113281 237.242188 87.40625 237.078125 88.703125 C 236.902344 89.996094 236.773438 91.296875 236.699219 92.601562 L 236.660156 93.578125 L 236.652344 94.558594 C 236.65625 94.886719 236.667969 95.210938 236.675781 95.539062 C 236.691406 95.863281 236.722656 96.1875 236.746094 96.511719 C 236.75 96.542969 236.726562 96.566406 236.699219 96.570312 C 236.675781 96.570312 236.65625 96.558594 236.644531 96.539062 L 236.640625 96.527344 C 236.113281 95.257812 235.917969 93.894531 235.847656 92.5625 C 235.800781 91.890625 235.828125 91.222656 235.84375 90.554688 C 235.851562 90.21875 235.886719 89.886719 235.917969 89.554688 C 235.949219 89.222656 235.976562 88.890625 236.019531 88.5625 C 236.121094 87.902344 236.230469 87.242188 236.367188 86.589844 C 236.535156 85.941406 236.679688 85.289062 236.90625 84.652344 C 237.011719 84.335938 237.125 84.015625 237.253906 83.703125 C 237.378906 83.390625 237.527344 83.078125 237.667969 82.773438 C 237.746094 82.621094 237.835938 82.46875 237.917969 82.320312 C 238.003906 82.171875 238.078125 82.019531 238.1875 81.878906 C 238.289062 81.738281 238.386719 81.59375 238.492188 81.460938 L 238.863281 81.085938 L 238.867188 81.085938 C 238.886719 81.0625 238.921875 81.0625 238.945312 81.085938 C 238.960938 81.101562 238.964844 81.128906 238.953125 81.148438 Z M 238.953125 81.148438 " fill-opacity="1" fill-rule="nonzero"/><path fill="#ed5580" d="M 245.636719 233.601562 L 232.445312 223.835938 C 230.40625 222.328125 229.386719 219.800781 229.804688 217.296875 L 235.519531 182.21875 L 235.617188 182.140625 L 239.984375 154.128906 L 255.449219 154.128906 Z M 245.636719 233.601562 " fill-opacity="1" fill-rule="nonzero"/><path fill="#171b1b" d="M 235.503906 182.304688 L 239.984375 154.128906 L 255.449219 154.128906 L 246.988281 222.65625 Z M 235.503906 182.304688 " fill-opacity="1" fill-rule="nonzero"/><path fill="#ed5580" d="M 224.085938 111.75 L 232.691406 105.941406 L 248.566406 129.460938 L 239.957031 135.269531 Z M 224.085938 111.75 " fill-opacity="1" fill-rule="nonzero"/><path fill="#ed5580" d="M 249.261719 120.601562 L 230.949219 119.679688 C 226.707031 119.46875 223.378906 115.96875 223.378906 111.71875 L 223.378906 111.691406 C 223.378906 107.382812 226.804688 103.851562 231.109375 103.722656 L 249.261719 103.179688 Z M 249.261719 120.601562 " fill-opacity="1" fill-rule="nonzero"/><path fill="#171b1b" d="M 237.035156 131.191406 C 237.035156 131.191406 241.144531 121.566406 238.617188 114.941406 C 240.371094 117.191406 244.160156 122.859375 245.96875 125.578125 L 245.96875 125.664062 C 246.5625 126.558594 246.90625 127.101562 246.90625 127.101562 Z M 237.035156 131.191406 " fill-opacity="1" fill-rule="nonzero"/><path fill="#ed5580" d="M 280.890625 201.078125 L 249.980469 241.132812 L 240.273438 233.230469 L 245.242188 183.355469 L 233.566406 141.324219 C 232.441406 137.277344 234.117188 132.972656 237.679688 130.75 L 245.96875 125.578125 L 281.636719 178.816406 C 286.199219 185.625 285.898438 194.589844 280.890625 201.078125 Z M 280.890625 201.078125 " fill-opacity="1" fill-rule="nonzero"/><path fill="#171b1b" d="M 176.980469 165.878906 C 176.980469 165.878906 176.929688 166.199219 176.878906 166.496094 C 173.28125 171.488281 170.433594 175.351562 167.117188 181.238281 L 166.363281 181.597656 C 165.421875 183.363281 164.066406 186.054688 163.441406 187.734375 L 86.605469 187.734375 L 77.507812 166.441406 L 77.535156 166.390625 L 77.285156 165.804688 Z M 176.980469 165.878906 " fill-opacity="1" fill-rule="nonzero"/><path fill="#ed5580" d="M 179.886719 154.023438 C 179.867188 154.550781 179.816406 155.128906 179.746094 155.757812 C 179.664062 156.472656 179.554688 157.253906 179.417969 158.113281 C 179.417969 158.113281 178.335938 165.195312 176.878906 166.492188 C 166.960938 167.914062 150.230469 167.546875 131.226562 167.546875 C 129.734375 167.546875 128.207031 167.550781 126.660156 167.554688 L 126.199219 167.554688 C 125.351562 167.554688 124.496094 167.554688 123.636719 167.558594 L 122.957031 167.558594 C 119.242188 167.570312 115.4375 167.582031 111.675781 167.582031 C 97.78125 167.582031 84.429688 167.425781 77.742188 166.441406 C 75.371094 164.789062 74.238281 161.859375 74.886719 159.042969 C 75.390625 156.828125 76.015625 154.09375 76.613281 151.441406 C 76.742188 150.875 76.867188 150.3125 76.992188 149.757812 C 77.054688 149.476562 77.117188 149.199219 77.179688 148.921875 C 77.214844 148.765625 77.246094 148.609375 77.28125 148.453125 C 77.324219 148.261719 77.378906 148.070312 77.445312 147.882812 C 77.453125 147.863281 77.65625 147.832031 77.660156 147.8125 C 77.660156 147.8125 78.792969 145.917969 78.875 145.746094 L 78.816406 145.679688 C 83.257812 140.972656 97.125 138.394531 126.546875 145.863281 C 127.34375 146.0625 133.242188 147.085938 136.203125 147.46875 C 137.648438 147.65625 151.070312 149.132812 161.636719 148.78125 C 169.578125 148.519531 176.011719 148.03125 178.542969 149.71875 L 178.421875 149.929688 C 178.484375 150.09375 179.597656 151.867188 179.597656 151.867188 L 179.808594 151.996094 C 179.855469 152.316406 179.886719 152.660156 179.894531 153.03125 C 179.902344 153.339844 179.902344 153.671875 179.886719 154.023438 Z M 179.886719 154.023438 " fill-opacity="1" fill-rule="nonzero"/><path fill="#ffffff" d="M 179.808594 151.996094 C 177.1875 152.785156 172.816406 153.515625 165.371094 153.960938 C 160.777344 154.238281 155.328125 154.378906 149.34375 154.378906 C 143.882812 154.378906 137.972656 154.261719 131.851562 154.027344 C 130.308594 153.972656 128.761719 153.90625 127.222656 153.832031 C 126.898438 153.820312 126.574219 153.800781 126.253906 153.785156 L 125.707031 153.761719 L 125.195312 153.734375 C 124.511719 153.699219 123.832031 153.664062 123.152344 153.628906 C 122.867188 153.613281 122.578125 153.597656 122.292969 153.582031 C 113.304688 153.085938 104.648438 152.378906 97.238281 151.527344 C 90.410156 150.746094 81.796875 149.503906 77.445312 147.882812 C 77.511719 147.6875 77.59375 147.492188 77.683594 147.300781 C 77.953125 146.742188 78.328125 146.199219 78.816406 145.679688 C 81.855469 146.6875 88.386719 148.050781 100.691406 149.339844 C 107.371094 150.039062 114.859375 150.613281 122.488281 151.035156 C 122.746094 151.050781 123.007812 151.066406 123.269531 151.082031 C 124.050781 151.125 124.835938 151.164062 125.625 151.203125 C 125.664062 151.203125 125.707031 151.207031 125.742188 151.207031 C 125.777344 151.207031 125.804688 151.210938 125.835938 151.210938 C 132.578125 151.542969 139.363281 151.75 145.734375 151.808594 C 163.605469 151.972656 173.839844 150.960938 178.542969 149.71875 C 179.007812 150.023438 179.34375 150.414062 179.527344 150.898438 C 179.589844 151.066406 179.644531 151.238281 179.691406 151.421875 C 179.738281 151.605469 179.777344 151.796875 179.808594 151.996094 Z M 179.808594 151.996094 " fill-opacity="1" fill-rule="nonzero"/><path fill="#ed5580" d="M 202.355469 250.640625 C 188.503906 252.757812 162.789062 252.292969 128.207031 252.292969 C 84.117188 252.292969 39.699219 258.496094 39.699219 233.539062 C 39.699219 215.648438 58.71875 197.234375 76.457031 186.671875 C 90.253906 178.457031 107.945312 173.519531 127.234375 173.519531 C 141.785156 173.519531 155.421875 176.328125 167.171875 181.238281 C 164.125 187.335938 162.464844 193.910156 162.464844 200.765625 C 162.464844 222.074219 178.507812 240.679688 202.355469 250.640625 Z M 202.355469 250.640625 " fill-opacity="1" fill-rule="nonzero"/><path fill="#171b1b" d="M 115.171875 225.003906 L 142.375 225.003906 L 142.375 227.503906 L 115.171875 227.503906 Z M 115.171875 225.003906 " fill-opacity="1" fill-rule="nonzero"/><path fill="#171b1b" d="M 112.421875 229.964844 L 139.628906 229.964844 L 139.628906 232.460938 L 112.421875 232.460938 Z M 112.421875 229.964844 " fill-opacity="1" fill-rule="nonzero"/><path fill="#171b1b" d="M 109.671875 234.925781 L 136.875 234.925781 L 136.875 237.421875 L 109.671875 237.421875 Z M 109.671875 234.925781 " fill-opacity="1" fill-rule="nonzero"/><path fill="#171b1b" d="M 106.910156 239.882812 L 134.113281 239.882812 L 134.113281 242.382812 L 106.910156 242.382812 Z M 106.910156 239.882812 " fill-opacity="1" fill-rule="nonzero"/><path fill="#ed5580" d="M 215.390625 259.96875 L 146.019531 259.96875 C 142.054688 259.96875 138.378906 257.886719 136.335938 254.488281 L 134.597656 251.597656 L 144.714844 229.625 L 249.980469 229.625 L 249.980469 241.132812 L 238.222656 251.402344 C 231.898438 256.921875 223.789062 259.96875 215.390625 259.96875 Z M 215.390625 259.96875 " fill-opacity="1" fill-rule="nonzero"/><path fill="#171b1b" d="M 229.984375 243.167969 L 162.898438 243.167969 L 173.183594 229.625 L 240.273438 229.625 Z M 229.984375 243.167969 " fill-opacity="1" fill-rule="nonzero"/><path fill="#171b1b" d="M 47.335938 238.007812 C 49.089844 234.648438 50.910156 231.316406 52.839844 228.046875 C 54.804688 224.796875 56.890625 221.613281 59.140625 218.535156 C 61.375 215.449219 63.835938 212.519531 66.453125 209.730469 C 69.078125 206.949219 71.867188 204.308594 74.859375 201.914062 C 75.589844 201.289062 76.367188 200.730469 77.125 200.144531 L 78.273438 199.277344 C 78.652344 198.984375 79.054688 198.722656 79.445312 198.445312 C 80.230469 197.898438 81.007812 197.335938 81.808594 196.808594 L 84.226562 195.253906 C 87.492188 193.203125 90.984375 191.457031 94.601562 190.070312 C 101.847656 187.320312 109.632812 185.917969 117.421875 186.066406 C 121.316406 186.113281 125.210938 186.527344 129.042969 187.296875 L 131.902344 187.949219 C 132.851562 188.183594 133.785156 188.480469 134.726562 188.742188 C 135.195312 188.878906 135.664062 189.003906 136.15625 189.191406 C 136.644531 189.363281 137.132812 189.535156 137.597656 189.746094 C 138.074219 189.945312 138.546875 190.144531 139 190.378906 C 139.460938 190.609375 139.925781 190.828125 140.363281 191.09375 C 142.144531 192.105469 143.824219 193.300781 145.347656 194.675781 C 146.855469 196.066406 148.230469 197.613281 149.402344 199.304688 L 150.046875 200.265625 L 150.242188 200.601562 L 151.015625 201.9375 L 151.695312 203.328125 L 151.867188 203.675781 L 152.011719 204.03125 L 152.292969 204.753906 L 152.574219 205.472656 C 152.65625 205.714844 152.726562 205.960938 152.804688 206.207031 C 152.953125 206.699219 153.125 207.1875 153.246094 207.6875 L 153.589844 209.1875 C 153.652344 209.433594 153.691406 209.6875 153.726562 209.941406 L 153.84375 210.699219 C 154.023438 211.710938 154.042969 212.730469 154.125 213.742188 C 154.136719 214.25 154.125 214.757812 154.125 215.265625 L 154.121094 216.023438 C 154.117188 216.277344 154.089844 216.527344 154.070312 216.777344 L 153.949219 218.285156 C 153.902344 218.785156 153.808594 219.277344 153.738281 219.773438 L 153.625 220.515625 C 153.589844 220.765625 153.546875 221.011719 153.488281 221.253906 L 153.160156 222.710938 C 152.210938 226.574219 150.738281 230.246094 148.871094 233.65625 C 148.65625 234.09375 148.402344 234.503906 148.160156 234.925781 L 147.425781 236.179688 C 146.953125 237.027344 146.398438 237.816406 145.867188 238.621094 L 145.0625 239.824219 L 143.351562 242.144531 L 142.925781 242.722656 L 142.472656 243.28125 L 140.648438 245.503906 C 140.027344 246.230469 139.382812 246.9375 138.742188 247.644531 L 137.78125 248.703125 L 136.78125 249.722656 C 136.105469 250.394531 135.4375 251.074219 134.757812 251.738281 L 134.4375 251.457031 L 136.109375 249.15625 L 136.953125 248.019531 L 137.753906 246.851562 C 138.28125 246.070312 138.835938 245.308594 139.359375 244.527344 L 140.875 242.152344 L 141.257812 241.566406 L 141.617188 240.960938 L 142.332031 239.753906 L 143.042969 238.550781 L 143.699219 237.316406 C 144.597656 235.683594 145.410156 234.015625 146.167969 232.332031 C 146.515625 231.476562 146.894531 230.636719 147.214844 229.777344 C 147.515625 228.910156 147.855469 228.0625 148.136719 227.191406 L 148.527344 225.882812 C 148.652344 225.445312 148.804688 225.015625 148.890625 224.570312 L 149.199219 223.25 L 149.351562 222.589844 L 149.460938 221.925781 L 149.683594 220.597656 C 149.730469 220.378906 149.753906 220.15625 149.773438 219.933594 L 149.84375 219.265625 C 149.882812 218.824219 149.949219 218.378906 149.96875 217.9375 L 150.011719 216.609375 C 150.015625 216.386719 150.035156 216.167969 150.03125 215.945312 L 150.007812 215.285156 C 149.988281 214.847656 149.980469 214.40625 149.957031 213.96875 C 149.847656 213.097656 149.804688 212.222656 149.613281 211.371094 L 149.5 210.726562 C 149.464844 210.511719 149.429688 210.296875 149.367188 210.089844 L 149.046875 208.828125 C 148.9375 208.410156 148.777344 208.007812 148.648438 207.59375 C 148.578125 207.390625 148.515625 207.183594 148.441406 206.980469 L 148.1875 206.382812 L 147.9375 205.785156 L 147.816406 205.488281 L 147.671875 205.199219 L 147.101562 204.039062 L 146.445312 202.921875 L 146.28125 202.640625 L 146.101562 202.375 L 145.734375 201.839844 C 143.78125 199 141.203125 196.550781 138.226562 194.753906 C 137.863281 194.511719 137.480469 194.316406 137.097656 194.105469 C 136.722656 193.886719 136.332031 193.707031 135.9375 193.523438 C 135.550781 193.328125 135.148438 193.171875 134.75 193.011719 C 134.363281 192.84375 133.921875 192.707031 133.488281 192.5625 C 132.617188 192.28125 131.753906 191.96875 130.875 191.714844 L 128.222656 191 C 124.652344 190.164062 121.003906 189.65625 117.328125 189.488281 C 109.976562 189.160156 102.550781 190.296875 95.582031 192.746094 C 92.085938 193.960938 88.722656 195.511719 85.515625 197.386719 L 83.109375 198.832031 C 82.316406 199.324219 81.542969 199.847656 80.753906 200.355469 C 80.367188 200.613281 79.964844 200.859375 79.585938 201.128906 L 78.445312 201.945312 C 77.6875 202.488281 76.910156 203.011719 76.179688 203.597656 C 73.175781 205.832031 70.359375 208.308594 67.691406 210.941406 C 65.03125 213.578125 62.503906 216.371094 60.1875 219.335938 C 57.859375 222.292969 55.679688 225.371094 53.609375 228.527344 C 51.554688 231.695312 49.601562 234.933594 47.714844 238.214844 Z M 47.335938 238.007812 " fill-opacity="1" fill-rule="nonzero"/><path fill="#ed5580" d="M 260.398438 122.90625 L 260.398438 123.828125 C 259.101562 123.828125 256.367188 123.804688 254.5625 123.804688 C 244.53125 123.804688 236.40625 117.960938 236.40625 110.75 C 236.40625 103.539062 244.53125 97.699219 254.5625 97.699219 C 256.367188 97.699219 258.464844 97.742188 260.421875 97.707031 L 260.515625 98.648438 Z M 260.398438 122.90625 " fill-opacity="1" fill-rule="nonzero"/><path fill="#171b1b" d="M 262.121094 110.769531 C 262.121094 116.34375 261.660156 121.105469 261.011719 122.976562 C 260.824219 123.523438 260.617188 123.828125 260.398438 123.828125 C 260.21875 123.828125 260.050781 123.625 259.890625 123.242188 C 259.1875 121.59375 258.675781 116.632812 258.675781 110.769531 C 258.675781 104.910156 259.1875 99.949219 259.886719 98.292969 C 260.050781 97.914062 260.21875 97.707031 260.398438 97.707031 C 260.617188 97.707031 260.824219 98.007812 261.011719 98.558594 C 261.664062 100.433594 262.121094 105.195312 262.121094 110.769531 Z M 262.121094 110.769531 " fill-opacity="1" fill-rule="nonzero"/><path fill="#ed5580" d="M 52.988281 211.953125 L 40.148438 211.953125 C 38.496094 211.953125 37.507812 210.113281 38.425781 208.734375 L 48.628906 193.390625 C 49.464844 192.132812 50.875 191.378906 52.382812 191.378906 L 72.015625 191.378906 C 64.265625 197.34375 52.988281 211.953125 52.988281 211.953125 Z M 52.988281 211.953125 " fill-opacity="1" fill-rule="nonzero"/><path fill="#171b1b" d="M 52.988281 211.953125 L 46.574219 211.953125 L 60.3125 191.378906 L 72.015625 191.378906 C 62.753906 199.59375 52.988281 211.953125 52.988281 211.953125 Z M 52.988281 211.953125 " fill-opacity="1" fill-rule="nonzero"/><path fill="#ffffff" d="M 63.722656 196.261719 L 48.457031 196.261719 L 49.578125 194.863281 L 64.847656 194.863281 Z M 63.722656 196.261719 " fill-opacity="1" fill-rule="nonzero"/><path fill="#171b1b" d="M 221.570312 123.515625 L 220.738281 122.757812 C 218.789062 120.984375 218.648438 117.96875 220.417969 116.019531 L 227.425781 108.320312 C 229.199219 106.371094 232.214844 106.230469 234.164062 108.003906 L 234.996094 108.761719 C 236.945312 110.53125 237.085938 113.550781 235.3125 115.496094 L 228.308594 123.199219 C 226.535156 125.144531 223.519531 125.289062 221.570312 123.515625 Z M 221.570312 123.515625 " fill-opacity="1" fill-rule="nonzero"/><g clip-path="url(#50b75aefd3)"><path fill="#ffffff" d="M 70.308594 245.078125 C 71.347656 238.664062 72.910156 232.527344 74.992188 226.667969 C 77.078125 220.8125 79.707031 215.28125 82.878906 210.078125 C 82.917969 216.347656 82.417969 222.617188 82.585938 228.875 C 82.691406 232.824219 83.644531 236.140625 87.976562 237.214844 C 89.605469 231.757812 91.164062 225.800781 93.574219 220.65625 C 93.449219 222.980469 93.613281 225.316406 94.4375 227.515625 C 95.476562 230.300781 98.417969 234.160156 103.117188 233.585938 C 94.078125 227.917969 100.386719 217.042969 98.242188 214.527344 C 97.125 213.433594 95.3125 212.207031 93.675781 212.648438 C 91.253906 213.292969 87.773438 224.914062 87.039062 227.375 L 87.265625 210.519531 C 87.332031 209.714844 87.109375 208.992188 86.617188 208.351562 C 85.59375 207.230469 82.449219 205.070312 81.042969 206.488281 C 79.957031 207.589844 78.828125 209.234375 77.65625 211.425781 C 75.070312 216.257812 69.476562 230.652344 68.035156 238.972656 C 67.351562 242.921875 68.808594 244.1875 70.308594 245.078125 " fill-opacity="1" fill-rule="evenodd"/></g><path fill="#ffffff" d="M 85.125 221.425781 C 63.929688 212.28125 51.929688 231.734375 66.9375 236.050781 C 66.992188 235.375 66.996094 234.164062 66.15625 233.585938 C 59.746094 228.316406 68.945312 219.972656 81.59375 222.15625 C 82.816406 222.363281 84.128906 222.878906 85.125 221.425781 " fill-opacity="1" fill-rule="evenodd"/><g mask="url(#d92c8ac515)"><g transform="matrix(1, 0, 0, 1, 72, 221)"><g clip-path="url(#36ffff3358)"><g clip-path="url(#8127db49ed)"><path fill="#1a2237" d="M 1.015625 1.265625 C 0.835938 1.746094 0.65625 2.234375 0.476562 2.726562 C 1.660156 2.480469 2.929688 2.328125 4.269531 2.296875 C 4.46875 1.796875 4.671875 1.300781 4.882812 0.808594 C 3.515625 0.84375 2.222656 1.003906 1.015625 1.265625 " fill-opacity="1" fill-rule="evenodd"/></g></g></g></g><g clip-path="url(#93e389a423)"><path fill="#ffffff" d="M 104.039062 225.835938 C 105.136719 225.730469 106.113281 226.535156 106.21875 227.632812 C 106.324219 228.730469 105.519531 229.707031 104.421875 229.8125 C 103.324219 229.917969 102.347656 229.113281 102.242188 228.015625 C 102.136719 226.917969 102.941406 225.941406 104.039062 225.835938 " fill-opacity="1" fill-rule="evenodd"/></g></svg>